<?xml version="1.0" standalone="no"?>
<!DOCTYPE svg PUBLIC "-//W3C//DTD SVG 20010904//EN"
 "http://www.w3.org/TR/2001/REC-SVG-20010904/DTD/svg10.dtd">
<svg version="1.0" xmlns="http://www.w3.org/2000/svg"
 width="281.000000pt" height="179.000000pt" viewBox="0 0 281.000000 179.000000"
 preserveAspectRatio="xMidYMid meet">

<g transform="translate(0.000000,179.000000) scale(0.100000,-0.100000)"
fill="#000000" stroke="none">
<path d="M0 775 l0 -775 35 0 c31 0 35 3 35 27 0 14 6 34 14 42 8 9 16 27 18
41 2 14 15 37 28 52 14 14 30 33 37 41 7 8 17 17 24 19 9 3 9 12 -1 39 -10 27
-10 41 -2 55 10 17 11 15 12 -13 0 -33 14 -45 23 -20 2 6 8 -1 12 -17 5 -17 4
-36 -3 -47 -8 -13 -8 -18 3 -23 7 -2 15 -17 17 -33 4 -38 32 -41 53 -5 12 19
31 32 61 41 24 7 55 22 68 32 13 11 29 19 35 19 6 0 11 5 11 10 0 6 7 10 15
10 11 0 15 11 15 39 0 22 5 41 12 43 6 2 -3 15 -21 27 -31 22 -33 23 -46 5 -7
-11 -17 -15 -22 -11 -4 5 0 14 10 21 9 7 17 18 17 25 0 6 4 11 9 11 12 0 43
103 36 122 -3 8 1 21 10 28 8 7 15 21 15 31 0 11 7 19 15 19 8 0 15 4 15 9 0
5 9 11 21 14 12 3 18 10 15 16 -4 6 5 8 21 7 22 -3 29 -9 33 -32 3 -18 8 -24
13 -17 4 6 4 18 1 27 -3 9 -1 16 5 16 6 0 14 -14 18 -31 5 -28 7 -30 19 -15 9
13 13 14 17 4 14 -32 47 53 52 132 1 8 6 14 13 13 12 -3 15 7 13 44 -2 13 5
23 16 26 17 4 17 5 -1 6 -14 1 -17 7 -14 26 3 13 2 22 -2 20 -5 -3 -10 2 -14
10 -3 8 -10 15 -16 15 -6 0 -8 -4 -5 -10 3 -5 1 -10 -4 -10 -17 0 -13 21 7 36
10 8 12 13 5 14 -7 0 -13 12 -13 28 0 28 -29 80 -30 54 0 -7 -4 -11 -9 -8 -5
3 -11 -4 -15 -17 -9 -34 -7 -40 9 -33 9 3 15 0 15 -9 0 -8 0 -18 0 -22 0 -15
-41 -10 -51 6 -8 13 -9 12 -4 -6 3 -12 1 -24 -5 -28 -6 -3 -10 3 -10 14 0 17
-6 21 -35 21 -28 0 -35 4 -35 20 0 11 -6 20 -14 20 -8 0 -18 9 -21 20 -3 11
-11 20 -16 20 -5 0 -23 10 -39 22 -28 20 -29 23 -15 45 9 13 11 23 5 23 -5 0
-10 -5 -10 -11 0 -8 -4 -8 -15 1 -8 6 -20 10 -27 8 -16 -6 -34 12 -41 38 -2
10 -5 1 -6 -21 -1 -27 -4 -36 -10 -26 -5 7 -14 10 -20 7 -7 -5 -14 4 -17 24
-4 17 -11 33 -15 36 -5 3 -9 14 -9 25 0 13 7 19 23 20 16 1 14 3 -11 10 -19 6
-41 8 -50 6 -10 -3 -4 -5 11 -6 32 -1 27 -21 -5 -21 -17 0 -18 -3 -8 -15 10
-12 8 -16 -11 -23 -37 -14 -59 -3 -59 29 0 24 -5 29 -32 33 -18 2 -48 4 -67 3
-30 -2 -36 2 -44 28 -16 52 -14 80 7 85 24 7 42 50 20 50 -8 0 -14 -6 -12 -14
3 -15 1 -16 -29 -16 -17 1 -17 1 0 14 9 7 17 26 17 42 0 16 4 43 9 61 7 25 6
31 -4 27 -8 -3 -20 4 -27 15 -7 12 -20 21 -30 21 -16 0 -17 -51 -18 -775z
m175 445 c3 -5 3 -15 0 -20 -7 -12 -45 5 -45 20 0 13 37 13 45 0z m20 -120 c3
-5 1 -10 -4 -10 -6 0 -11 5 -11 10 0 6 2 10 4 10 3 0 8 -4 11 -10z m329 -135
c11 -8 15 -15 9 -15 -19 0 -43 12 -43 21 0 13 12 11 34 -6z m56 -41 c0 -14 -3
-14 -15 -4 -8 7 -15 14 -15 16 0 2 7 4 15 4 8 0 15 -7 15 -16z m150 -179 c0
-8 -7 -15 -15 -15 -7 0 -18 -6 -22 -14 -9 -14 -53 -32 -53 -21 0 4 9 20 21 36
22 31 69 41 69 14z m-527 -346 c-14 -14 -43 0 -43 21 0 23 16 35 23 18 3 -7 6
-4 7 7 1 16 4 14 12 -8 6 -18 7 -32 1 -38z m40 47 c4 -10 0 -14 -14 -13 -10 1
-19 7 -19 14 0 18 27 16 33 -1z m-73 -136 c0 -22 -4 -40 -8 -40 -5 0 -7 14 -4
30 3 18 0 30 -7 30 -6 0 -11 5 -11 10 0 6 7 10 15 10 11 0 15 -11 15 -40z"/>
<path d="M225 1211 c-3 -5 -1 -12 5 -16 5 -3 10 1 10 9 0 18 -6 21 -15 7z"/>
<path d="M440 1165 c0 -8 7 -15 16 -15 14 0 14 3 4 15 -7 8 -14 15 -16 15 -2
0 -4 -7 -4 -15z"/>
<path d="M360 1140 c0 -5 5 -10 10 -10 6 0 10 5 10 10 0 6 -4 10 -10 10 -5 0
-10 -4 -10 -10z"/>
<path d="M580 1015 c0 -8 5 -15 10 -15 6 0 10 7 10 15 0 8 -4 15 -10 15 -5 0
-10 -7 -10 -15z"/>
<path d="M614 975 c27 -21 53 -20 36 0 -7 8 -22 15 -34 15 -21 -1 -21 -1 -2
-15z"/>
<path d="M1104 888 c-3 -5 -10 -6 -15 -3 -5 4 -12 -1 -16 -11 -4 -10 0 -20 11
-26 10 -5 22 -19 27 -31 9 -21 9 -21 5 1 -5 28 2 52 16 52 6 0 8 -12 5 -29 -4
-17 0 -36 8 -47 13 -17 14 -14 15 34 0 28 1 55 3 60 3 10 -53 10 -59 0z"/>
<path d="M853 843 c9 -2 23 -2 30 0 6 3 -1 5 -18 5 -16 0 -22 -2 -12 -5z"/>
<path d="M598 583 c7 -3 16 -2 19 1 4 3 -2 6 -13 5 -11 0 -14 -3 -6 -6z"/>
<path d="M853 577 c-4 -8 -22 -22 -40 -32 -25 -14 -30 -22 -21 -32 7 -9 7 -13
-1 -13 -8 0 -8 -5 1 -19 7 -11 16 -17 21 -14 4 2 16 -5 26 -16 19 -21 61 -29
61 -11 0 5 7 7 15 3 9 -3 13 -8 11 -11 -8 -8 45 -33 55 -26 14 8 11 36 -3 29
-7 -4 -4 1 6 9 11 9 14 16 7 16 -7 0 -9 5 -6 10 5 8 12 7 23 -2 13 -11 15 -11
10 3 -3 9 -2 22 2 30 11 16 -17 51 -34 43 -6 -3 -3 1 7 9 12 10 14 17 8 22 -6
3 -11 0 -11 -7 -1 -8 -6 -5 -15 7 -15 18 -17 18 -44 2 -25 -15 -30 -15 -35 -2
-7 19 -32 20 -43 2z m160 -72 c-7 -19 -17 -19 -32 -1 -10 11 -8 15 6 18 25 6
33 0 26 -17z"/>
<path d="M1303 568 c-20 -26 -22 -46 -5 -41 10 2 18 15 18 29 2 27 0 29 -13
12z"/>
<path d="M1397 573 c-4 -3 -7 -13 -7 -22 1 -13 3 -13 11 2 11 19 8 33 -4 20z"/>
<path d="M1208 513 c7 -3 16 -2 19 1 4 3 -2 6 -13 5 -11 0 -14 -3 -6 -6z"/>
<path d="M1216 461 c-9 -16 -21 -31 -28 -33 -9 -3 -9 -6 0 -12 7 -4 12 -2 12
3 0 6 5 11 10 11 6 0 10 -6 10 -14 0 -24 20 -29 40 -11 17 15 17 19 5 32 -8 8
-15 21 -15 28 0 27 -19 25 -34 -4z"/>
<path d="M720 90 c0 -5 -18 -10 -40 -10 -42 0 -47 -8 -34 -58 7 -26 41 -30 47
-5 4 17 5 17 6 1 1 -23 61 -26 61 -3 0 8 -5 15 -12 15 -6 0 -3 9 7 20 18 20
18 21 -1 35 -23 17 -34 19 -34 5z"/>
</g>
</svg>
