<?xml version="1.0" standalone="no"?>
<!DOCTYPE svg PUBLIC "-//W3C//DTD SVG 20010904//EN"
 "http://www.w3.org/TR/2001/REC-SVG-20010904/DTD/svg10.dtd">
<svg version="1.0" xmlns="http://www.w3.org/2000/svg"
 width="300.000000pt" height="168.000000pt" viewBox="0 0 300.000000 168.000000"
 preserveAspectRatio="xMidYMid meet">

<g transform="translate(0.000000,168.000000) scale(0.100000,-0.100000)"
fill="#000000" stroke="none">
<path d="M0 1335 c1 -190 3 -345 6 -345 3 0 18 6 32 14 40 20 95 36 126 36 15
0 42 6 59 13 84 36 173 52 287 51 63 0 128 -4 144 -9 22 -6 28 -5 24 6 -5 15
19 38 40 39 8 0 25 9 39 20 29 23 64 26 93 8 17 -11 23 -9 48 18 27 29 31 31
113 32 80 1 88 -1 108 -24 29 -34 41 -23 41 38 l0 51 -122 -7 c-68 -4 -142 -9
-165 -12 -51 -6 -58 3 -59 79 -1 56 1 61 41 102 50 52 70 58 176 53 68 -3 84
-7 93 -22 6 -11 20 -29 32 -40 16 -16 19 -27 13 -49 -4 -15 -5 -44 -2 -63 5
-31 8 -34 32 -30 64 14 87 10 133 -23 55 -40 83 -38 83 4 0 25 4 30 25 30 21
0 25 -5 25 -30 0 -29 1 -30 45 -28 25 0 147 3 272 5 142 2 232 8 238 14 6 6
12 21 13 34 2 25 37 46 62 36 18 -7 16 -42 -3 -38 -7 1 -12 -4 -12 -11 0 -11
14 -11 83 -1 45 8 104 19 130 26 38 9 52 9 67 0 11 -7 38 -12 59 -12 22 0 42
-4 45 -9 9 -14 178 -37 349 -47 59 -4 107 -10 107 -14 0 -15 -73 -19 -435 -25
-650 -11 -900 -20 -1045 -36 -47 -5 -126 -9 -176 -9 -50 0 -93 -3 -96 -6 -4
-3 -2 -20 3 -37 6 -21 5 -42 -3 -65 -11 -30 -10 -35 8 -50 12 -9 24 -24 26
-33 5 -13 0 -14 -44 -5 -43 9 -52 8 -63 -7 -15 -21 -22 -21 -41 -2 -12 12 -36
14 -105 12 -71 -1 -92 1 -99 13 -10 16 -3 51 12 61 5 3 8 26 6 50 -3 44 -3 44
-45 47 -33 2 -44 -1 -52 -17 -7 -12 -26 -23 -49 -27 -20 -3 -42 -12 -48 -19
-24 -31 -186 -101 -284 -125 -34 -8 -181 -38 -227 -46 -15 -3 -23 -12 -23 -24
0 -14 -7 -20 -24 -20 -13 0 -26 5 -28 11 -3 8 -16 8 -46 -2 l-42 -12 0 -429 0
-428 1500 0 1501 0 -4 473 c-3 259 -5 477 -6 482 -1 6 1 67 4 137 5 125 5 127
-18 131 l-22 4 23 2 22 1 0 225 0 225 -1500 0 -1500 0 0 -345z m165 284 c-9
-28 -51 -23 -47 6 2 11 11 26 20 33 13 10 18 9 25 -3 4 -9 5 -25 2 -36z m2400
22 c3 -5 1 -12 -5 -16 -5 -3 -10 1 -10 9 0 18 6 21 15 7z m235 -61 c0 -17 -17
-19 -72 -11 -19 3 -5 30 20 39 31 11 52 -1 52 -28z m-2587 -36 c-7 -18 -67
-10 -71 10 -4 17 14 39 38 48 16 6 41 -38 33 -58z m1060 59 c-7 -2 -19 -2 -25
0 -7 3 -2 5 12 5 14 0 19 -2 13 -5z m1713 -18 c4 -14 4 -29 0 -32 -9 -10 -36
18 -36 38 0 28 29 23 36 -6z m-637 -91 c2 -2 -7 -4 -21 -4 -15 0 -25 6 -25 14
0 12 5 13 21 4 12 -6 23 -12 25 -14z m31 6 c0 -5 -4 -10 -10 -10 -5 0 -10 5
-10 10 0 6 5 10 10 10 6 0 10 -4 10 -10z m-10 -84 c0 -19 -14 -28 -34 -20 -25
10 -19 34 9 34 15 0 25 -6 25 -14z m-130 -11 c15 -18 6 -45 -13 -45 -20 0 -40
27 -33 45 7 19 30 19 46 0z m280 -25 c0 -11 -4 -20 -10 -20 -5 0 -10 2 -10 4
0 2 -3 11 -6 20 -4 11 -1 16 10 16 9 0 16 -8 16 -20z m-2378 -170 c3 -23 0
-25 -43 -28 -45 -2 -82 18 -65 35 4 4 10 3 14 -3 12 -19 43 -12 59 13 18 27
30 21 35 -17z m296 -1 c3 -23 -1 -26 -27 -26 -33 0 -42 22 -19 45 19 19 43 10
46 -19z m-218 -32 c0 -12 -9 -28 -20 -35 -18 -11 -20 -10 -20 11 0 23 16 47
32 47 4 0 8 -10 8 -23z m310 3 c0 -5 -7 -10 -16 -10 -8 0 -12 5 -9 10 3 6 10
10 16 10 5 0 9 -4 9 -10z m-410 -51 c0 -5 -4 -9 -10 -9 -5 0 -10 7 -10 16 0 8
5 12 10 9 6 -3 10 -10 10 -16z m2280 1 c0 -5 -7 -10 -16 -10 -8 0 -12 5 -9 10
3 6 10 10 16 10 5 0 9 -4 9 -10z m-2262 -43 c2 -12 -3 -17 -17 -17 -12 0 -21
6 -21 13 0 31 32 34 38 4z m1362 -102 c14 9 21 -11 11 -37 -7 -17 -10 -18 -10
-5 -1 24 -18 21 -24 -4 -9 -35 -24 -12 -25 37 -2 62 9 76 25 36 7 -18 18 -30
23 -27z m236 8 c-7 -7 -36 16 -36 27 0 5 8 10 18 12 16 3 31 -27 18 -39z
m-346 7 c0 -5 -7 -10 -15 -10 -8 0 -15 5 -15 10 0 6 7 10 15 10 8 0 15 -4 15
-10z m-50 -38 c-25 -4 -35 2 -26 17 5 7 13 7 27 -2 20 -12 20 -12 -1 -15z
m-540 8 c0 -5 -5 -10 -11 -10 -5 0 -7 5 -4 10 3 6 8 10 11 10 2 0 4 -4 4 -10z
m1185 -20 c0 -22 -29 -18 -33 3 -3 14 1 18 15 15 10 -2 18 -10 18 -18z m305
10 c0 -5 -5 -10 -11 -10 -5 0 -7 5 -4 10 3 6 8 10 11 10 2 0 4 -4 4 -10z
m-725 -10 c3 -5 1 -10 -4 -10 -6 0 -11 5 -11 10 0 6 2 10 4 10 3 0 8 -4 11
-10z m245 -21 c0 -10 -4 -19 -10 -19 -5 0 -10 12 -10 26 0 14 4 23 10 19 6 -3
10 -15 10 -26z m56 4 c-10 -10 -19 5 -10 18 6 11 8 11 12 0 2 -7 1 -15 -2 -18z
m620 14 c10 -9 -63 -20 -77 -11 -9 5 -7 9 7 14 21 8 61 6 70 -3z m-1906 -7 c0
-12 -28 -25 -36 -17 -9 9 6 27 22 27 8 0 14 -5 14 -10z m675 -30 c-5 -8 -11
-8 -17 -2 -6 6 -7 16 -3 22 5 8 11 8 17 2 6 -6 7 -16 3 -22z m60 20 c3 -5 -1
-10 -9 -10 -8 0 -18 5 -21 10 -3 6 1 10 9 10 8 0 18 -4 21 -10z m465 -45 c0
-3 -12 -5 -26 -5 -16 0 -23 -4 -18 -11 3 -6 2 -14 -4 -18 -22 -13 7 -35 55
-42 l48 -6 -47 -2 c-26 0 -49 -5 -52 -10 -3 -5 -17 -8 -31 -8 -13 0 -22 3 -19
8 3 5 -7 10 -23 10 -17 1 -21 3 -10 6 9 2 17 8 17 13 0 4 9 6 20 3 17 -4 20 0
20 25 0 17 6 32 15 36 8 3 15 15 15 28 l0 22 20 -22 c11 -12 20 -24 20 -27z
m620 35 c0 -5 -2 -10 -4 -10 -3 0 -8 5 -11 10 -3 6 -1 10 4 10 6 0 11 -4 11
-10z m238 -1 c-2 -6 -8 -10 -13 -10 -5 0 -11 4 -13 10 -2 6 4 11 13 11 9 0 15
-5 13 -11z m-1818 -25 c0 -8 -9 -14 -20 -14 -22 0 -28 26 -7 33 16 6 27 -1 27
-19z m787 14 c-2 -7 3 -21 12 -31 15 -17 14 -20 -4 -33 -10 -8 -33 -14 -49
-14 -21 0 -27 3 -18 9 11 6 10 10 -3 15 -22 8 -5 31 30 40 14 4 25 11 25 16 0
6 3 10 6 10 3 0 4 -6 1 -12z m87 3 c3 -5 -1 -11 -9 -14 -9 -4 -12 -1 -8 9 6
16 10 17 17 5z m-1354 -11 c0 -5 -5 -10 -11 -10 -5 0 -7 5 -4 10 3 6 8 10 11
10 2 0 4 -4 4 -10z m100 2 c0 -13 -12 -22 -22 -16 -10 6 -1 24 13 24 5 0 9 -4
9 -8z m50 -2 c0 -5 -5 -10 -11 -10 -5 0 -7 5 -4 10 3 6 8 10 11 10 2 0 4 -4 4
-10z m829 -22 c0 -28 -2 -30 -9 -13 -12 28 -12 45 0 45 6 0 10 -15 9 -32z m55
1 c-8 -13 -24 -1 -24 18 0 13 3 13 15 3 8 -7 12 -16 9 -21z m656 21 c0 -5 -4
-10 -10 -10 -5 0 -10 5 -10 10 0 6 5 10 10 10 6 0 10 -4 10 -10z m-792 -20
c13 -22 7 -45 -9 -35 -5 4 -9 -5 -9 -19 0 -14 5 -26 10 -26 6 0 10 -4 10 -10
0 -5 -7 -10 -15 -10 -12 0 -15 13 -15 60 0 63 7 73 28 40z m762 10 c0 -5 -5
-10 -11 -10 -5 0 -7 5 -4 10 3 6 8 10 11 10 2 0 4 -4 4 -10z m200 0 c0 -5 -7
-10 -16 -10 -8 0 -12 5 -9 10 3 6 10 10 16 10 5 0 9 -4 9 -10z m690 -15 c0
-16 -6 -25 -15 -25 -9 0 -15 9 -15 25 0 16 6 25 15 25 9 0 15 -9 15 -25z
m-1785 5 c3 -5 1 -10 -4 -10 -6 0 -11 5 -11 10 0 6 2 10 4 10 3 0 8 -4 11 -10z
m-123 -32 c-5 -31 -5 -31 -13 -9 -9 23 -5 41 10 41 4 0 5 -14 3 -32z m453 22
c3 -5 1 -10 -4 -10 -6 0 -11 5 -11 10 0 6 2 10 4 10 3 0 8 -4 11 -10z m1115 0
c0 -5 -4 -10 -10 -10 -5 0 -10 5 -10 10 0 6 5 10 10 10 6 0 10 -4 10 -10z
m-1150 -10 c0 -5 -4 -10 -10 -10 -5 0 -10 5 -10 10 0 6 5 10 10 10 6 0 10 -4
10 -10z m260 0 c0 -5 -2 -10 -4 -10 -3 0 -8 5 -11 10 -3 6 -1 10 4 10 6 0 11
-4 11 -10z m294 -14 c-4 -11 -13 -15 -25 -11 -14 5 -17 2 -13 -8 6 -18 -25
-32 -40 -17 -5 5 -8 11 -5 12 23 16 84 46 87 44 1 -2 0 -11 -4 -20z m-1784
-10 c0 -8 -4 -17 -9 -21 -12 -7 -24 12 -16 25 9 15 25 12 25 -4z m519 -8 c12
-15 11 -18 -3 -18 -10 0 -16 8 -16 22 0 12 1 19 3 17 1 -2 9 -12 16 -21z m692
7 c-1 -5 -12 -10 -26 -11 -26 -1 -34 11 -12 19 18 8 38 4 38 -8z m-631 -10 c0
-8 -2 -15 -4 -15 -2 0 -6 7 -10 15 -3 8 -1 15 4 15 6 0 10 -7 10 -15z m670 -1
c0 -8 -5 -12 -10 -9 -6 4 -8 11 -5 16 9 14 15 11 15 -7z m933 9 c-7 -2 -19 -2
-25 0 -7 3 -2 5 12 5 14 0 19 -2 13 -5z m-2133 -19 c0 -8 -4 -12 -10 -9 -5 3
-10 10 -10 16 0 5 5 9 10 9 6 0 10 -7 10 -16z m1076 -9 c1 -14 -2 -25 -7 -25
-5 0 -9 11 -9 25 0 33 15 33 16 0z m164 15 c0 -5 -7 -10 -15 -10 -8 0 -15 5
-15 10 0 6 7 10 15 10 8 0 15 -4 15 -10z m788 -7 c-10 -2 -26 -2 -35 0 -10 3
-2 5 17 5 19 0 27 -2 18 -5z m-1618 -29 c0 -7 -8 -10 -20 -7 -11 3 -20 9 -20
14 0 4 9 7 20 6 11 -1 20 -7 20 -13z m290 -4 c0 -14 6 -20 17 -18 10 2 19 -4
21 -14 3 -14 -3 -18 -22 -18 -14 0 -26 5 -26 11 0 7 -8 18 -17 25 -16 12 -16
15 -3 24 22 15 30 12 30 -10z m415 -69 c3 -5 1 -20 -4 -33 l-10 -23 0 26 c-1
14 -3 48 -6 75 l-4 49 9 -43 c5 -23 11 -46 15 -51z m52 83 c-3 -3 -12 -4 -19
-1 -8 3 -5 6 6 6 11 1 17 -2 13 -5z m-547 -45 c0 -24 4 -38 10 -34 14 8 13 3
-6 -34 -12 -24 -19 -30 -27 -22 -6 6 -22 11 -36 11 l-26 1 28 22 c15 13 27 33
27 45 0 12 4 22 10 22 5 0 7 7 4 15 -4 8 -1 15 5 15 6 0 11 -18 11 -41z m210
25 c0 -8 -4 -12 -10 -9 -5 3 -10 10 -10 16 0 5 5 9 10 9 6 0 10 -7 10 -16z
m-285 -54 c-4 -13 -12 -19 -21 -16 -8 3 -17 -1 -20 -9 -10 -25 -27 -17 -20 10
6 24 -7 35 -18 16 -4 -5 -14 -8 -24 -7 -22 4 -29 36 -8 36 9 0 16 6 16 13 1 7
6 5 14 -6 16 -20 46 -13 46 11 0 14 4 13 21 -5 15 -14 19 -27 14 -43z m886 48
c1 -7 1 -19 0 -25 -1 -9 8 -11 29 -7 19 4 30 2 30 -5 0 -6 -13 -11 -30 -11
-24 0 -30 -4 -30 -22 0 -36 -8 -16 -13 35 -3 26 -1 47 4 47 5 0 10 -6 10 -12z
m-1301 -2 c0 -3 -4 -8 -10 -11 -5 -3 -10 -1 -10 4 0 6 5 11 10 11 6 0 10 -2
10 -4z m2308 -3 c-10 -2 -28 -2 -40 0 -13 2 -5 4 17 4 22 1 32 -1 23 -4z
m-1498 -12 c0 -5 3 -18 7 -28 6 -16 5 -16 -10 -4 -19 15 -23 41 -7 41 6 0 10
-4 10 -9z m255 -13 c6 -4 2 -8 -7 -8 -10 0 -18 7 -18 17 0 9 3 12 8 7 4 -5 12
-12 17 -16z m523 -25 c14 -12 14 -13 0 -13 -9 0 -19 -8 -21 -17 -3 -10 -5 5
-5 32 0 28 2 41 5 30 3 -11 12 -26 21 -32z m410 40 c-15 -2 -42 -2 -60 0 -18
2 -6 4 27 4 33 0 48 -2 33 -4z m-868 -18 c0 -1 -9 -5 -20 -8 -12 -3 -20 0 -20
8 0 8 8 11 20 8 11 -3 20 -7 20 -8z m655 5 c8 -12 -5 -60 -16 -60 -5 0 -9 7
-9 16 0 10 -6 13 -19 9 -10 -3 -23 1 -31 10 -13 16 -10 18 35 28 33 7 34 7 40
-3z m-539 -22 c-9 -5 -23 -5 -32 0 -12 6 -7 9 16 9 23 0 28 -3 16 -9z m-187
-20 c0 -13 -3 -17 -6 -10 -2 6 -9 10 -14 6 -5 -3 -9 -1 -9 5 0 8 9 14 28 20 1
1 2 -9 1 -21z m1334 15 c-7 -2 -21 -2 -30 0 -10 3 -4 5 12 5 17 0 24 -2 18 -5z
m-1438 -13 c-4 -6 -15 -8 -26 -5 -15 5 -19 1 -20 -17 -2 -22 -2 -22 -6 -1 -2
12 -12 24 -21 26 -9 3 5 5 31 6 31 1 46 -3 42 -9z m-959 -24 c-3 -14 -1 -28 4
-31 17 -11 0 -25 -30 -25 -38 0 -48 18 -16 30 16 6 26 17 26 30 0 11 5 20 11
20 7 0 9 -10 5 -24z m194 14 c0 -5 -4 -10 -10 -10 -5 0 -10 5 -10 10 0 6 5 10
10 10 6 0 10 -4 10 -10z m1760 0 c0 -5 -4 -10 -10 -10 -5 0 -10 5 -10 10 0 6
5 10 10 10 6 0 10 -4 10 -10z m-1203 -6 c-3 -3 -12 -4 -19 -1 -8 3 -5 6 6 6
11 1 17 -2 13 -5z m1830 0 c-3 -3 -12 -4 -19 -1 -8 3 -5 6 6 6 11 1 17 -2 13
-5z m-2292 -14 c3 -5 -3 -10 -15 -10 -12 0 -18 5 -15 10 3 6 10 10 15 10 5 0
12 -4 15 -10z m385 -5 c0 -8 -4 -15 -10 -15 -5 0 -10 7 -10 15 0 8 5 15 10 15
6 0 10 -7 10 -15z m833 8 c-7 -2 -21 -2 -30 0 -10 3 -4 5 12 5 17 0 24 -2 18
-5z m-1463 -13 c0 -5 -6 -10 -14 -10 -8 0 -18 5 -21 10 -3 6 3 10 14 10 12 0
21 -4 21 -10z m2110 0 c0 -5 -12 -10 -26 -10 -14 0 -23 4 -19 10 3 6 15 10 26
10 10 0 19 -4 19 -10z m-1740 -11 c0 -6 -9 -9 -20 -6 -13 3 -20 0 -20 -10 0
-8 -4 -11 -10 -8 -22 14 -10 35 20 35 17 0 30 -5 30 -11z m308 4 c-10 -2 -18
-9 -18 -14 0 -6 -4 -7 -10 -4 -19 12 -10 25 18 24 16 -1 20 -3 10 -6z m399
-77 l25 -22 -26 -31 c-26 -30 -27 -31 -56 -16 -17 8 -28 18 -25 23 3 5 1 11
-5 15 -17 11 -11 35 10 35 13 0 22 9 26 28 11 50 18 58 22 23 2 -20 13 -42 29
-55z m-1260 68 c-3 -3 -12 -4 -19 -1 -8 3 -5 6 6 6 11 1 17 -2 13 -5z m1020 0
c-3 -3 -12 -4 -19 -1 -8 3 -5 6 6 6 11 1 17 -2 13 -5z m103 -4 c0 -5 -4 -10
-10 -10 -5 0 -10 5 -10 10 0 6 5 10 10 10 6 0 10 -4 10 -10z m999 -13 c15 -19
-20 -51 -47 -43 -13 4 -20 2 -19 -6 1 -38 -4 -48 -27 -48 -26 0 -42 15 -48 45
-2 16 2 20 24 17 14 -1 29 2 33 8 4 6 -4 10 -19 10 -14 0 -26 5 -26 11 0 6 13
8 30 5 16 -2 32 0 36 5 8 14 50 11 63 -4z m446 3 c8 -13 -20 -24 -41 -16 -20
8 -9 26 16 26 10 0 22 -5 25 -10z m-70 -10 c-3 -5 -10 -10 -16 -10 -5 0 -9 5
-9 10 0 6 7 10 16 10 8 0 12 -4 9 -10z m-830 -27 c0 -12 3 -24 7 -28 4 -4 4
-21 1 -38 -6 -29 -5 -30 21 -23 35 9 56 -8 56 -43 0 -38 -25 -70 -41 -53 -7 6
-23 12 -36 12 -29 0 -56 47 -42 73 8 14 6 17 -16 17 -28 0 -36 13 -39 62 -1
27 3 33 22 34 12 1 26 4 29 8 14 13 38 0 38 -21z m-1202 10 c-7 -2 -21 -2 -30
0 -10 3 -4 5 12 5 17 0 24 -2 18 -5z m177 -14 c0 -19 4 -21 34 -16 31 5 56 -6
56 -25 0 -4 -8 -8 -18 -8 -10 0 -21 -3 -24 -6 -3 -3 -46 -6 -94 -8 -49 -1 -99
-8 -111 -14 -20 -11 -83 -17 -83 -8 0 2 -3 11 -6 20 -4 11 1 15 23 14 38 -1
97 12 104 24 3 5 27 9 52 10 39 0 47 4 47 19 0 11 5 19 10 19 6 0 10 -10 10
-21z m216 6 c18 -9 23 -15 12 -15 -9 0 -23 -3 -32 -6 -12 -4 -16 0 -16 15 0
25 0 25 36 6z m-496 -4 c0 -9 -34 -21 -60 -20 -8 0 -1 6 15 14 37 16 45 18 45
6z m78 -8 c-10 -2 -28 -2 -40 0 -13 2 -5 4 17 4 22 1 32 -1 23 -4z m-248 -58
c0 -8 -4 -15 -9 -15 -13 0 -22 16 -14 24 11 11 23 6 23 -9z m173 -12 c-7 -2
-21 -2 -30 0 -10 3 -4 5 12 5 17 0 24 -2 18 -5z m217 -11 c0 -13 -12 -22 -22
-16 -10 6 -1 24 13 24 5 0 9 -4 9 -8z m360 -2 c0 -5 -10 -10 -22 -10 -19 0
-20 2 -8 10 19 13 30 13 30 0z m1730 0 c0 -7 6 -7 18 -2 21 12 42 5 42 -14 0
-16 -5 -17 -49 -8 -28 6 -46 34 -21 34 6 0 10 -5 10 -10z m-571 -34 c10 -11 8
-16 -9 -21 -26 -8 -33 -3 -24 19 8 20 18 20 33 2z m75 -1 c6 -18 -16 -30 -39
-21 -20 7 -8 36 15 36 10 0 21 -7 24 -15z m-1859 -5 c-3 -5 -10 -10 -16 -10
-5 0 -9 5 -9 10 0 6 7 10 16 10 8 0 12 -4 9 -10z m2178 -6 c-5 -14 -52 -18
-76 -6 -18 9 7 22 43 22 32 0 38 -3 33 -16z m-1525 -10 c12 -4 22 -11 22 -16
0 -14 -53 -5 -58 10 -4 13 2 15 36 6z m447 -14 c-3 -5 -10 -10 -16 -10 -5 0
-9 5 -9 10 0 6 7 10 16 10 8 0 12 -4 9 -10z m75 -46 c0 -8 -9 -14 -20 -14 -22
0 -26 10 -8 28 13 13 28 7 28 -14z m672 -26 c8 -41 -6 -71 -36 -79 -40 -11
-55 -2 -62 37 -8 45 8 64 56 64 31 0 38 -4 42 -22z m278 2 c0 -17 -7 -20 -40
-20 -30 0 -40 4 -40 16 0 12 6 15 25 10 14 -4 25 -2 25 4 0 5 7 10 15 10 8 0
15 -9 15 -20z m-2364 -38 c2 -36 -1 -42 -18 -42 -15 0 -18 4 -13 18 9 22 9 32
0 56 -6 14 -4 17 10 14 14 -2 19 -13 21 -46z m1104 28 c0 -20 -15 -25 -44 -14
-22 8 -8 34 20 34 17 0 24 -6 24 -20z m-830 -10 c0 -5 -4 -10 -9 -10 -6 0 -13
5 -16 10 -3 6 1 10 9 10 9 0 16 -4 16 -10z m450 1 c0 -11 -29 -35 -35 -29 -10
9 7 38 21 38 8 0 14 -4 14 -9z m-130 -11 c0 -5 -5 -10 -11 -10 -5 0 -7 5 -4
10 3 6 8 10 11 10 2 0 4 -4 4 -10z m715 -61 c5 -5 26 -9 46 -9 23 0 39 -5 43
-15 6 -18 -27 -38 -52 -31 -9 3 -41 6 -71 7 -63 3 -102 29 -81 54 13 15 96 11
115 -6z m-882 -6 c-7 -2 -19 -2 -25 0 -7 3 -2 5 12 5 14 0 19 -2 13 -5z m34
-19 c-3 -3 -12 -4 -19 -1 -8 3 -5 6 6 6 11 1 17 -2 13 -5z m1518 -64 c3 -5 -3
-10 -14 -10 -12 0 -21 5 -21 10 0 6 6 10 14 10 8 0 18 -4 21 -10z m96 -19 c-8
-14 -17 -17 -38 -13 -19 4 -22 7 -10 10 9 2 17 8 17 13 0 5 9 9 20 9 17 0 19
-3 11 -19z m-291 -16 c11 -21 11 -29 0 -50 -16 -31 -27 -31 -57 -3 -28 26 -28
32 -5 57 24 27 46 25 62 -4z m190 6 c0 -13 -28 -22 -35 -11 -3 4 1 11 7 13 20
8 28 8 28 -2z m-1693 -22 c7 -7 13 -18 13 -26 0 -11 -15 -13 -72 -11 -41 2
-73 7 -72 13 3 27 104 45 131 24z m1095 -11 c-9 -9 -15 -9 -24 0 -9 9 -7 12
12 12 19 0 21 -3 12 -12z"/>
<path d="M798 553 c7 -3 16 -2 19 1 4 3 -2 6 -13 5 -11 0 -14 -3 -6 -6z"/>
<path d="M945 1130 c-11 -4 -30 -10 -42 -15 -13 -4 -23 -14 -23 -22 0 -12 3
-13 14 -4 11 10 20 10 38 0 45 -24 64 -62 36 -72 -7 -2 -10 -8 -6 -12 10 -10
87 -14 93 -4 7 10 -5 39 -16 39 -4 0 -19 11 -33 24 -26 24 -35 56 -15 56 5 0
7 5 4 10 -7 11 -21 11 -50 0z"/>
</g>
</svg>
