<?xml version="1.0" standalone="no"?>
<!DOCTYPE svg PUBLIC "-//W3C//DTD SVG 20010904//EN"
 "http://www.w3.org/TR/2001/REC-SVG-20010904/DTD/svg10.dtd">
<svg version="1.0" xmlns="http://www.w3.org/2000/svg"
 width="318.000000pt" height="159.000000pt" viewBox="0 0 318.000000 159.000000"
 preserveAspectRatio="xMidYMid meet">

<g transform="translate(0.000000,159.000000) scale(0.100000,-0.100000)"
fill="#000000" stroke="none">
<path d="M0 1310 c0 -154 3 -280 6 -280 3 0 12 7 20 15 9 8 27 18 42 21 44 9
82 26 82 35 0 5 38 9 85 9 47 0 85 4 85 9 0 11 29 17 110 26 30 3 75 8 100 11
89 9 120 16 120 25 0 5 3 8 8 8 26 -4 102 2 99 9 -7 11 15 28 38 28 35 0 115
26 109 35 -3 5 8 9 25 9 16 0 31 5 33 11 2 6 26 13 53 15 67 5 123 19 143 36
9 8 33 15 52 17 19 2 40 7 47 13 7 5 16 7 21 4 6 -3 32 3 58 13 85 32 119 41
159 41 21 0 69 9 107 20 37 12 72 19 76 16 5 -3 30 1 55 9 26 8 67 16 93 19
25 3 51 9 57 13 44 27 515 55 645 37 29 -3 52 -10 52 -15 0 -5 6 -9 14 -9 8 0
16 -5 18 -11 2 -6 16 -13 31 -14 16 -2 39 -11 52 -19 14 -9 25 -12 25 -6 0 5
8 8 18 6 38 -9 62 -19 62 -26 0 -8 39 -23 54 -21 4 1 14 -3 21 -9 6 -5 25 -11
41 -12 16 -1 34 -5 39 -8 18 -12 71 -19 84 -11 12 8 68 -6 81 -19 7 -7 49 -30
55 -30 3 0 5 59 5 130 l0 130 -1590 0 -1590 0 0 -280z"/>
<path d="M2831 758 c-13 -12 -37 -21 -52 -21 -16 0 -29 -4 -29 -9 0 -5 -12 0
-26 11 -30 24 -54 26 -87 9 -12 -6 -29 -14 -37 -19 -8 -4 -14 -12 -13 -17 1
-5 -7 -12 -17 -15 -11 -3 -20 -2 -20 2 0 5 -19 15 -42 24 -40 16 -43 16 -64
-3 -16 -16 -28 -19 -50 -14 -44 11 -163 15 -139 5 17 -7 14 -9 -18 -15 -20 -4
-37 -12 -37 -18 0 -7 -7 -3 -15 8 -21 28 -20 -4 1 -34 9 -13 14 -25 12 -28 -3
-2 -17 13 -32 33 l-27 38 7 -45 c7 -41 6 -44 -9 -31 -10 7 -17 21 -17 30 0 9
-5 23 -11 31 -8 11 -9 6 -5 -22 2 -21 1 -38 -5 -38 -5 0 -9 12 -10 28 0 15 -3
22 -6 15 -3 -9 -9 -10 -23 -1 -14 9 -22 9 -33 0 -8 -7 -22 -9 -31 -6 -11 4
-22 -1 -31 -12 -14 -18 -14 -18 -15 7 0 21 -6 28 -27 34 -23 5 -32 2 -49 -21
-14 -17 -26 -24 -34 -19 -10 6 -8 12 6 22 17 13 16 14 -21 12 -22 -2 -43 -7
-46 -12 -6 -9 -129 -11 -389 -8 -140 2 -209 -2 -335 -19 -34 -4 -71 -4 -85 2
-13 5 -157 11 -320 13 -331 4 -320 3 -338 22 -20 20 -48 16 -95 -14 -48 -31
-60 -33 -103 -17 -24 9 -36 9 -58 -3 -15 -8 -34 -12 -42 -9 -12 5 -14 -43 -14
-314 l0 -320 1590 0 1590 0 0 139 0 140 -32 4 -33 4 33 1 c24 2 32 7 32 21 0
17 -9 20 -72 23 -40 2 -93 0 -118 -3 l-45 -6 58 -2 c32 0 56 -5 53 -9 -3 -5
-33 -5 -68 0 -35 5 -97 9 -138 8 -48 0 -70 3 -61 9 9 6 -16 9 -70 9 -46 0
-118 5 -159 10 -41 6 -115 13 -165 16 -49 3 -112 8 -140 10 -49 6 -223 22
-320 31 -27 3 -137 14 -244 25 -181 19 -266 31 -726 95 l-170 24 138 -3 c76
-1 142 -7 145 -12 4 -5 45 -10 92 -12 47 -1 108 -7 135 -12 l50 -9 -65 4 c-58
4 -61 3 -30 -7 19 -5 64 -8 100 -5 36 3 54 2 40 -2 -22 -6 -23 -8 -7 -14 10
-4 27 -2 38 4 12 6 43 7 82 2 52 -6 57 -8 32 -13 -16 -4 15 -6 70 -6 55 1 107
-3 115 -9 8 -5 40 -10 70 -10 153 -1 199 -5 196 -17 -1 -7 -1 -10 1 -5 3 4 23
7 46 7 25 0 37 -4 29 -8 -7 -5 14 -6 45 -4 32 2 134 -3 226 -12 92 -9 193 -16
223 -16 47 0 54 -2 54 -20 0 -11 5 -20 11 -20 6 0 8 8 5 18 -6 17 1 17 137 6
78 -7 180 -13 227 -15 47 -1 89 -5 94 -7 5 -3 26 -5 45 -5 l36 0 3 206 2 207
-37 0 c-21 0 -67 -5 -103 -11 -88 -16 -105 -16 -103 -2 1 6 -4 17 -12 23 -12
10 -18 10 -30 0 -10 -9 -15 -9 -15 -1 0 18 -24 13 -49 -11z m-1012 -102 c-15
-13 -49 -25 -49 -17 0 5 8 12 18 14 24 6 36 8 31 3z m-1602 -92 c-3 -3 -12 -4
-19 -1 -8 3 -5 6 6 6 11 1 17 -2 13 -5z m222 -20 c9 -8 -85 -2 -104 7 -13 6 0
7 40 3 33 -4 62 -8 64 -10z m98 0 c-3 -3 -12 -4 -19 -1 -8 3 -5 6 6 6 11 1 17
-2 13 -5z m243 -4 c0 -5 -14 -10 -31 -10 -20 0 -29 -4 -27 -12 5 -15 58 -24
58 -11 0 14 69 12 104 -3 17 -7 26 -13 19 -14 -7 0 -23 5 -37 12 -19 8 -32 8
-48 0 -21 -9 -19 -11 20 -11 30 -1 42 -5 42 -16 0 -10 -9 -15 -27 -14 -25 0
-26 1 -8 10 16 7 13 8 -12 5 -18 -3 -35 -1 -38 4 -3 6 -18 10 -32 10 -15 0
-40 4 -57 9 -17 6 -60 17 -96 25 l-65 15 70 -5 c39 -2 86 0 105 5 48 12 60 13
60 1z m627 -16 c-3 -3 -12 -4 -19 -1 -8 3 -5 6 6 6 11 1 17 -2 13 -5z m586 -1
c-7 -2 -19 -2 -25 0 -7 3 -2 5 12 5 14 0 19 -2 13 -5z m-1437 -12 c1 -1 5 -8
8 -17 5 -14 4 -15 -8 -5 -8 7 -31 13 -50 14 -20 1 -36 6 -36 10 0 6 72 4 86
-2z m429 -1 c27 -7 27 -8 5 -8 -14 0 -38 4 -55 8 -27 7 -27 8 -5 8 14 0 39 -4
55 -8z m-370 -10 c13 -6 15 -9 5 -9 -8 0 -22 4 -30 9 -18 12 -2 12 25 0z
m1355 -4 c0 -3 -4 -8 -10 -11 -5 -3 -10 -1 -10 4 0 6 5 11 10 11 6 0 10 -2 10
-4z m154 -11 c3 -8 1 -15 -4 -15 -6 0 -10 7 -10 15 0 8 2 15 4 15 2 0 6 -7 10
-15z m-1427 -21 c-5 -5 -57 13 -57 20 0 3 14 0 31 -6 16 -6 28 -12 26 -14z
m398 16 c-3 -5 -16 -10 -28 -9 -20 1 -20 2 3 9 14 4 26 8 28 9 2 1 0 -3 -3 -9z
m35 0 c-12 -8 -8 -10 15 -11 17 -1 50 -3 75 -5 25 -1 58 -3 74 -3 17 0 27 -3
24 -6 -9 -9 -89 -10 -155 -1 -47 6 -60 11 -56 22 3 8 13 14 22 14 14 0 14 -2
1 -10z m963 3 c-7 -2 -19 -2 -25 0 -7 3 -2 5 12 5 14 0 19 -2 13 -5z m110 -7
c4 -10 0 -12 -14 -9 -22 6 -26 23 -5 23 8 0 16 -6 19 -14z m102 -6 c4 -6 -6
-10 -22 -10 -22 0 -25 2 -13 10 19 12 27 12 35 0z m-1315 -4 c0 -3 -4 -8 -10
-11 -5 -3 -10 -1 -10 4 0 6 5 11 10 11 6 0 10 -2 10 -4z m-204 -24 c-10 -2
-22 0 -28 6 -6 6 0 7 19 4 21 -5 23 -7 9 -10z m141 12 c-3 -3 -12 -4 -19 -1
-8 3 -5 6 6 6 11 1 17 -2 13 -5z m120 0 c-3 -3 -12 -4 -19 -1 -8 3 -5 6 6 6
11 1 17 -2 13 -5z m1351 -1 c-16 -2 -40 -2 -55 0 -16 2 -3 4 27 4 30 0 43 -2
28 -4z m-1978 -7 c0 -2 -7 -7 -16 -10 -8 -3 -12 -2 -9 4 6 10 25 14 25 6z
m677 -2 c-3 -3 -12 -4 -19 -1 -8 3 -5 6 6 6 11 1 17 -2 13 -5z m313 -9 c25
-14 25 -14 3 -15 -13 0 -23 5 -23 10 0 6 -17 8 -42 5 -36 -3 -38 -3 -13 4 43
12 47 12 75 -4z m727 9 c-3 -3 -12 -4 -19 -1 -8 3 -5 6 6 6 11 1 17 -2 13 -5z
m89 -12 c-10 -2 -22 0 -28 6 -6 6 0 7 19 4 21 -5 23 -7 9 -10z m589 -3 c78 -7
74 -7 -35 -3 -69 3 -141 9 -160 14 -26 7 -17 8 35 3 39 -3 111 -9 160 -14z
m-2208 5 c-3 -3 -12 -4 -19 -1 -8 3 -5 6 6 6 11 1 17 -2 13 -5z m876 -1 c-7
-2 -21 -2 -30 0 -10 3 -4 5 12 5 17 0 24 -2 18 -5z m100 -10 c-7 -2 -21 -2
-30 0 -10 3 -4 5 12 5 17 0 24 -2 18 -5z m1067 -17 c8 -2 -11 -4 -42 -5 -32 0
-58 2 -58 7 0 7 64 6 100 -2z m337 8 c-3 -3 -12 -4 -19 -1 -8 3 -5 6 6 6 11 1
17 -2 13 -5z m126 -1 c-7 -2 -21 -2 -30 0 -10 3 -4 5 12 5 17 0 24 -2 18 -5z
m-2176 -9 c-3 -3 -12 -4 -19 -1 -8 3 -5 6 6 6 11 1 17 -2 13 -5z m690 -10 c-3
-3 -12 -4 -19 -1 -8 3 -5 6 6 6 11 1 17 -2 13 -5z m1176 -1 c-13 -2 -33 -2
-45 0 -13 2 -3 4 22 4 25 0 35 -2 23 -4z m335 0 c-10 -2 -28 -2 -40 0 -13 2
-5 4 17 4 22 1 32 -1 23 -4z m-220 -10 c-10 -2 -26 -2 -35 0 -10 3 -2 5 17 5
19 0 27 -2 18 -5z m175 -10 c-18 -2 -48 -2 -65 0 -18 2 -4 4 32 4 36 0 50 -2
33 -4z m-936 -19 c-3 -3 -12 -4 -19 -1 -8 3 -5 6 6 6 11 1 17 -2 13 -5z m123
-14 c0 -5 -4 -10 -9 -10 -6 0 -13 5 -16 10 -3 6 1 10 9 10 9 0 16 -4 16 -10z
m203 -17 c-13 -2 -33 -2 -45 0 -13 2 -3 4 22 4 25 0 35 -2 23 -4z m84 -9 c-3
-3 -12 -4 -19 -1 -8 3 -5 6 6 6 11 1 17 -2 13 -5z m533 -4 c0 -5 -2 -10 -4
-10 -3 0 -8 5 -11 10 -3 6 -1 10 4 10 6 0 11 -4 11 -10z m-632 -27 c-16 -2
-40 -2 -55 0 -16 2 -3 4 27 4 30 0 43 -2 28 -4z m59 1 c-3 -3 -12 -4 -19 -1
-8 3 -5 6 6 6 11 1 17 -2 13 -5z m50 0 c-3 -3 -12 -4 -19 -1 -8 3 -5 6 6 6 11
1 17 -2 13 -5z m510 0 c-3 -3 -12 -4 -19 -1 -8 3 -5 6 6 6 11 1 17 -2 13 -5z"/>
<path d="M1128 513 c7 -3 16 -2 19 1 4 3 -2 6 -13 5 -11 0 -14 -3 -6 -6z"/>
<path d="M1188 503 c6 -2 18 -2 25 0 6 3 1 5 -13 5 -14 0 -19 -2 -12 -5z"/>
<path d="M1455 470 c28 -12 45 -12 45 0 0 6 -15 10 -32 9 -28 0 -30 -2 -13 -9z"/>
<path d="M1643 453 c9 -2 23 -2 30 0 6 3 -1 5 -18 5 -16 0 -22 -2 -12 -5z"/>
<path d="M1948 423 c6 -2 18 -2 25 0 6 3 1 5 -13 5 -14 0 -19 -2 -12 -5z"/>
<path d="M2665 360 c3 -5 13 -10 21 -10 8 0 14 5 14 10 0 6 -9 10 -21 10 -11
0 -17 -4 -14 -10z"/>
<path d="M2810 350 c41 -4 64 -7 51 -8 -13 -1 -22 -4 -19 -7 3 -3 25 -2 49 2
43 7 43 7 14 14 -16 4 -61 6 -100 6 l-70 -1 75 -6z"/>
</g>
</svg>
