<?xml version="1.0" standalone="no"?>
<!DOCTYPE svg PUBLIC "-//W3C//DTD SVG 20010904//EN"
 "http://www.w3.org/TR/2001/REC-SVG-20010904/DTD/svg10.dtd">
<svg version="1.0" xmlns="http://www.w3.org/2000/svg"
 width="259.000000pt" height="194.000000pt" viewBox="0 0 259.000000 194.000000"
 preserveAspectRatio="xMidYMid meet">

<g transform="translate(0.000000,194.000000) scale(0.100000,-0.100000)"
fill="#000000" stroke="none">
<path d="M2244 1575 c-1 -14 2 -25 7 -25 5 0 9 -5 9 -11 0 -6 -7 -9 -15 -6
-17 7 -30 -9 -15 -18 5 -3 10 -11 10 -17 0 -7 -5 -6 -14 2 -12 9 -18 7 -32 -9
-13 -15 -22 -18 -36 -10 -13 7 -23 4 -39 -12 -11 -11 -23 -18 -26 -15 -3 3
-19 -4 -36 -16 -17 -12 -28 -17 -24 -12 3 6 0 11 -7 11 -7 0 -13 -7 -12 -15 1
-8 -5 -17 -13 -20 -9 -3 -11 0 -6 9 6 11 5 11 -5 2 -7 -6 -18 -9 -25 -7 -7 3
-16 0 -21 -7 -5 -8 -3 -10 6 -4 8 5 11 4 7 -3 -4 -5 -16 -8 -27 -5 -14 4 -20
0 -20 -11 0 -10 5 -14 10 -11 6 3 10 -2 11 -12 0 -10 3 -13 6 -5 2 6 10 12 16
12 19 0 -18 -31 -40 -33 -11 0 -20 -7 -20 -14 0 -9 4 -10 13 -2 8 7 14 7 19
-1 4 -6 -11 -27 -31 -48 -21 -20 -37 -40 -36 -45 1 -4 -8 -11 -21 -16 -23 -9
-56 -41 -42 -41 4 0 13 7 20 16 11 15 12 15 12 0 0 -17 -31 -31 -47 -21 -13 8
-9 -17 5 -28 6 -5 0 -6 -14 -3 -13 2 -30 -1 -37 -8 -16 -16 -8 -26 19 -26 20
0 19 -1 -4 -27 -13 -16 -17 -22 -9 -15 18 15 38 16 23 1 -6 -6 -9 -18 -6 -27
4 -10 1 -13 -8 -10 -8 3 -22 1 -32 -4 -18 -9 -18 -10 -1 -23 16 -11 15 -13
-14 -20 -20 -4 -30 -11 -25 -18 4 -6 0 -8 -10 -4 -10 4 -14 2 -11 -6 3 -8 -10
-18 -31 -26 -19 -7 -35 -16 -35 -21 0 -16 25 -17 50 -1 15 9 9 1 -14 -22 -27
-26 -37 -42 -33 -57 3 -11 2 -18 -3 -15 -4 3 -10 -2 -13 -10 -4 -9 -1 -12 7
-9 7 3 16 -2 19 -10 4 -9 14 -16 23 -16 29 0 9 -23 -32 -36 l-39 -12 43 3 c24
1 42 -2 42 -8 0 -6 11 0 24 12 13 12 26 18 29 14 7 -12 -29 -44 -38 -35 -4 4
-5 -2 -1 -14 12 -41 -13 -55 -114 -63 -52 -5 -87 -9 -77 -10 10 0 16 -5 13
-10 -3 -5 2 -8 12 -7 9 0 16 -4 15 -11 -2 -9 5 -9 27 -1 17 5 27 14 24 20 -3
5 14 8 44 7 36 -2 49 -6 45 -15 -8 -20 37 -12 48 8 6 10 14 16 20 13 5 -4 7
-10 5 -14 -3 -4 1 -8 9 -8 8 0 12 4 9 9 -3 4 0 8 5 8 6 0 11 -6 11 -14 0 -17
-65 -76 -84 -76 -30 0 -116 -34 -116 -46 0 -8 9 -11 23 -9 21 4 21 4 3 -10
-11 -8 -15 -15 -10 -15 6 0 21 11 34 25 17 18 27 22 36 14 7 -6 18 -8 24 -4
17 11 11 -7 -7 -21 -16 -12 -16 -13 4 -8 12 4 29 15 39 25 13 14 20 16 31 8
11 -10 10 -14 -4 -26 -16 -14 -16 -14 3 -2 12 8 37 25 55 39 l34 25 -19 -30
c-18 -28 -18 -29 -1 -15 10 8 21 15 24 15 3 0 5 3 4 7 -1 3 4 9 13 12 9 3 14
1 12 -7 -2 -7 2 -13 7 -14 6 0 9 3 8 8 -4 13 11 11 25 -3 9 -9 12 -9 12 0 0 7
5 12 10 12 7 0 7 -6 1 -18 -7 -14 -6 -19 4 -19 8 0 12 4 9 9 -3 4 2 8 10 8 9
0 16 6 16 12 0 7 7 2 16 -10 8 -12 12 -27 9 -32 -3 -6 -1 -10 5 -10 6 0 8 -5
4 -12 -9 -14 8 -5 54 29 l32 24 9 -23 c6 -15 5 -28 -3 -37 -8 -11 -8 -13 1 -8
6 4 13 1 15 -5 3 -8 9 -4 17 10 6 12 16 22 22 22 6 0 7 -4 4 -10 -3 -6 -1 -10
5 -10 17 0 -7 -38 -56 -92 -48 -52 -61 -88 -16 -45 16 15 32 24 37 20 4 -5 4
-2 0 6 -6 11 -4 13 7 8 12 -4 17 3 22 26 14 71 26 -3 26 -165 l0 -168 30 0 31
0 -5 240 c-5 237 -5 241 18 295 21 46 23 60 15 97 -6 24 -20 53 -32 66 -19 20
-20 26 -8 45 11 18 11 20 0 10 -15 -15 -39 -17 -39 -4 0 12 38 23 81 23 35 1
109 -38 109 -56 0 -5 7 -14 16 -20 13 -10 9 -12 -23 -14 -36 -3 -37 -2 -18 12
21 16 10 22 -14 7 -16 -11 -6 -31 16 -31 14 0 13 -3 -3 -21 -19 -22 -19 -22 6
-14 21 7 23 6 13 -7 -7 -8 -9 -19 -5 -23 4 -5 1 -5 -6 0 -10 5 -13 2 -10 -11
2 -13 13 -20 33 -22 43 -5 49 -15 30 -52 -11 -20 -18 -64 -21 -119 -2 -57 -1
-78 5 -61 5 14 9 40 10 58 1 17 6 32 13 32 8 0 10 -55 5 -215 l-7 -215 43 0
43 0 1 225 c1 155 5 239 14 270 15 52 35 54 31 4 -2 -26 0 -30 7 -19 6 8 11
23 11 33 0 14 5 17 23 12 17 -5 14 0 -14 24 -25 21 -37 39 -37 58 -1 37 17 94
36 115 13 15 26 78 16 78 -2 0 -15 -17 -29 -37 -21 -32 -31 -32 -26 -1 0 3 2
26 5 50 2 24 11 62 19 84 13 35 13 46 2 68 -8 15 -10 28 -4 31 5 4 9 1 9 -6 0
-7 3 -10 6 -7 7 8 -15 51 -32 61 -8 4 -14 14 -14 21 0 8 -7 19 -15 26 -8 7
-15 18 -15 24 0 6 4 5 9 -3 9 -14 31 -7 31 10 0 6 -4 7 -10 4 -13 -8 -13 1 0
25 6 11 12 45 14 77 2 32 7 67 11 78 6 17 4 17 -12 -3 l-19 -23 -11 23 c-7 13
-15 43 -19 67 -5 36 -8 41 -16 27 -8 -14 -12 -15 -24 -5 -12 10 -12 14 -2 21
10 8 10 11 1 15 -7 2 -13 17 -13 32 0 16 -9 40 -20 53 -11 14 -24 38 -30 52
-5 15 -15 24 -21 21 -7 -5 -5 -14 5 -29 8 -13 11 -28 6 -36 -6 -9 -10 -7 -15
9 -3 11 -11 21 -16 21 -5 0 -9 6 -9 13 0 7 -9 13 -19 13 -11 0 -18 -4 -15 -7
2 -4 0 -10 -6 -14 -5 -3 -10 -2 -10 2 0 5 -6 17 -12 26 -12 16 -13 15 -14 -8z
m139 -65 c3 -11 1 -18 -4 -14 -5 3 -9 12 -9 20 0 20 7 17 13 -6z m-366 -146
c-3 -3 -12 -4 -19 -1 -8 3 -5 6 6 6 11 1 17 -2 13 -5z m-60 -49 c0 -8 -4 -12
-9 -9 -5 3 -6 10 -3 15 9 13 12 11 12 -6z m245 -81 c79 -14 193 -49 133 -41
-11 1 -27 -6 -36 -17 -15 -18 -17 -18 -41 -2 -13 9 -28 13 -33 9 -4 -5 -5 1
-1 12 5 15 -1 12 -26 -12 -34 -33 -61 -46 -38 -18 10 12 10 15 -2 15 -8 0 -20
-6 -28 -12 -8 -7 -4 -1 9 14 l23 26 -26 -2 c-15 -2 -29 0 -32 5 -2 4 -12 6
-22 3 -9 -3 -6 1 8 9 l25 15 -30 5 -30 4 27 2 c16 0 70 -6 120 -15z m0 -76
c-7 -7 -12 -8 -12 -2 0 14 12 26 19 19 2 -3 -1 -11 -7 -17z m-276 -82 c0 -15
-5 -21 -10 -16 -5 5 -6 16 -3 24 9 23 15 19 13 -8z m144 6 c0 -5 -11 -14 -25
-20 -18 -9 -26 -8 -31 1 -4 7 -4 9 1 5 4 -4 17 -1 29 7 24 17 26 18 26 7z
m-190 -12 c0 -5 -5 -10 -11 -10 -5 0 -7 5 -4 10 3 6 8 10 11 10 2 0 4 -4 4
-10z m-40 -10 c0 -5 -4 -10 -10 -10 -5 0 -10 5 -10 10 0 6 5 10 10 10 6 0 10
-4 10 -10z m351 -215 c5 4 6 -1 2 -10 -5 -13 -7 -14 -14 -3 -5 7 -8 18 -8 23
0 6 3 4 6 -3 2 -6 9 -10 14 -7z m117 -27 c17 -17 42 -19 35 -2 -3 8 1 14 10
14 17 0 43 -28 33 -37 -3 -3 -6 -1 -6 5 0 7 -5 12 -11 12 -5 0 -7 -5 -3 -12 4
-6 3 -8 -2 -5 -6 3 -16 2 -24 -3 -12 -7 -12 -11 1 -26 11 -13 5 -12 -31 6 -57
28 -55 27 -40 45 15 18 22 19 38 3z m-61 -20 c-3 -8 -6 -5 -6 6 -1 11 2 17 5
13 3 -3 4 -12 1 -19z m-626 -21 c-10 -9 -11 -8 -5 6 3 10 9 15 12 12 3 -3 0
-11 -7 -18z m452 -62 c-3 -9 -8 -14 -10 -11 -3 3 -2 9 2 15 9 16 15 13 8 -4z
m-290 -57 c-9 -18 -16 -37 -14 -42 1 -5 -6 -3 -16 4 -10 8 -19 15 -21 16 -1 1
5 7 15 15 15 12 16 12 9 -1 -4 -8 2 -3 14 13 29 36 34 34 13 -5z m193 17 c-11
-8 -24 -15 -30 -15 -5 0 -1 7 10 15 10 8 24 14 29 14 6 0 1 -6 -9 -14z m-266
-25 c-6 -11 -13 -20 -16 -20 -2 0 0 9 6 20 6 11 13 20 16 20 2 0 0 -9 -6 -20z
m94 -16 c-20 -29 -24 -30 -19 -4 5 28 15 41 26 35 5 -4 2 -17 -7 -31z m-132
-6 c-7 -7 -12 -8 -12 -2 0 14 12 26 19 19 2 -3 -1 -11 -7 -17z m229 13 c9 -1
16 -7 16 -13 0 -9 -18 -13 -54 -13 -29 0 -53 1 -53 2 0 11 34 29 52 27 12 -1
30 -3 39 -3z m484 -1 c3 -5 1 -10 -4 -10 -6 0 -11 5 -11 10 0 6 2 10 4 10 3 0
8 -4 11 -10z m-430 -28 c-3 -3 -11 0 -18 7 -9 10 -8 11 6 5 10 -3 15 -9 12
-12z m-418 -28 c-3 -3 -12 -4 -19 -1 -8 3 -5 6 6 6 11 1 17 -2 13 -5z m263 -5
c0 -6 5 -7 12 -3 7 4 8 3 4 -4 -10 -16 -56 -15 -56 1 0 7 9 13 20 14 11 1 20
-3 20 -8z m70 -1 c0 -4 -9 -8 -21 -8 -11 0 -18 4 -15 8 3 5 12 9 21 9 8 0 15
-4 15 -9z m-115 -107 c-3 -6 -11 -8 -17 -5 -6 4 -5 9 3 15 16 10 23 4 14 -10z
m257 -17 c5 -7 4 -14 -5 -17 -9 -3 -13 5 -14 27 -1 17 1 24 4 16 3 -8 10 -20
15 -26z"/>
<path d="M161 1489 c-6 -11 -18 -19 -26 -19 -9 0 -12 -6 -9 -15 4 -9 -1 -17
-12 -21 -44 -14 -64 -28 -52 -35 7 -4 -3 -10 -25 -14 -31 -6 -35 -10 -26 -21
9 -11 8 -14 -2 -14 -11 0 -11 -2 1 -10 11 -7 11 -10 2 -10 -10 0 -12 -44 -11
-205 1 -113 5 -205 10 -205 5 0 4 -11 -1 -24 -9 -24 -9 -24 24 -11 32 13 46
11 46 -6 0 -5 -15 -11 -34 -15 -32 -5 -34 -8 -30 -37 7 -61 16 -90 23 -78 5 7
13 -5 20 -29 6 -22 16 -40 22 -40 6 0 7 -5 3 -12 -4 -6 -3 -8 4 -4 5 3 13 0
16 -6 4 -7 4 -2 2 10 -5 23 -4 24 16 5 12 -10 18 -13 15 -6 -4 7 1 14 13 18
11 4 18 10 16 14 -3 4 4 7 15 7 29 0 23 -19 -12 -40 -17 -10 -28 -20 -25 -24
3 -3 14 2 23 10 24 20 53 30 53 18 0 -6 7 -10 16 -10 8 0 13 -4 9 -9 -3 -5 3
-12 12 -14 15 -4 15 -6 -4 -12 -13 -4 -23 -15 -22 -24 0 -10 2 -11 6 -3 2 6
11 12 20 12 13 0 13 -2 -1 -15 -8 -8 -20 -15 -26 -15 -6 0 -9 -4 -6 -9 3 -5
-1 -11 -9 -15 -18 -7 -20 -33 -2 -39 6 -2 -1 -2 -17 1 -19 3 -26 1 -22 -7 4
-6 2 -11 -4 -11 -6 0 -9 -4 -6 -9 4 -5 0 -12 -6 -14 -36 -15 37 -4 83 12 30
10 75 17 101 16 26 -1 45 2 42 6 -3 5 2 9 10 9 9 0 16 5 16 10 0 15 30 12 36
-4 3 -8 11 -13 18 -10 9 3 13 -3 12 -17 0 -12 -8 -25 -16 -27 -13 -5 -13 -3 0
14 8 10 0 6 -18 -10 -32 -30 -45 -49 -17 -26 23 19 18 -1 -7 -28 -13 -14 -16
-22 -8 -18 13 7 13 6 0 -6 -8 -7 -16 -31 -18 -52 -3 -34 -1 -38 12 -27 12 10
15 7 18 -21 l4 -33 14 45 c7 25 15 51 16 58 1 8 5 16 8 20 6 5 7 0 12 -78 5
-93 4 -88 14 -63 5 13 12 23 16 23 3 0 3 -8 0 -17 -5 -13 0 -11 19 7 l26 24
-2 -85 c-1 -46 -2 -110 -1 -141 2 -57 3 -58 31 -58 16 0 31 5 33 11 2 5 0 62
-5 125 -6 93 -5 120 7 142 9 15 15 21 16 13 0 -8 7 -5 18 9 12 15 19 43 21 93
1 39 5 75 8 80 2 4 -2 19 -11 32 -12 19 -13 25 -2 34 13 11 26 5 26 -11 0 -5
-6 -6 -12 -2 -7 5 -3 -5 10 -21 12 -15 20 -36 17 -45 -3 -10 2 -23 10 -30 13
-11 19 -11 31 2 14 14 14 19 0 53 -9 21 -14 40 -11 43 3 3 5 2 5 -2 0 -4 7 0
16 9 9 8 13 22 10 30 -5 13 11 20 37 16 4 0 7 3 7 8 0 5 8 8 18 6 9 -2 21 -4
26 -4 4 -1 6 -8 3 -16 -5 -11 1 -13 32 -9 26 4 41 1 50 -10 11 -13 6 -17 -34
-27 -36 -9 -43 -14 -31 -21 10 -6 26 -3 45 6 26 14 30 14 45 -3 9 -10 13 -21
9 -25 -14 -13 -13 -46 1 -46 11 0 13 -14 11 -62 -2 -35 -7 -134 -10 -220 l-6
-158 36 0 c19 0 35 1 36 3 1 1 3 112 5 246 3 162 8 249 16 258 6 8 12 33 12
56 1 34 6 44 26 54 14 7 20 13 13 13 -9 0 -9 8 2 33 10 24 11 50 5 98 -8 70
-18 94 -56 146 -17 22 -21 34 -12 39 7 5 8 3 3 -6 -5 -8 -4 -11 3 -6 6 4 8 14
5 23 -5 12 -3 14 7 8 9 -6 11 -4 5 5 -6 10 -11 10 -20 -3 -14 -20 -56 -22 -73
-5 -9 9 -17 7 -36 -11 -14 -13 -26 -18 -30 -12 -4 5 -2 12 4 16 7 4 6 13 -1
27 -8 15 -14 17 -22 9 -20 -20 -30 -11 -11 10 19 22 19 22 -6 14 -14 -4 -31
-10 -39 -13 -9 -3 -12 -1 -7 6 12 19 -33 42 -63 31 -24 -9 -25 -8 -7 6 13 10
15 15 6 15 -7 0 -11 2 -8 5 6 6 104 -23 140 -41 15 -8 31 -15 35 -15 5 0 15
-7 24 -15 9 -8 18 -12 21 -9 3 3 11 -1 18 -10 19 -22 35 -18 49 13 l12 27 -20
-25 c-18 -23 -20 -23 -20 -5 1 37 -13 109 -26 130 -7 11 -16 38 -20 60 -6 42
-38 75 -51 54 -4 -8 -9 -7 -15 2 -12 20 -11 31 3 23 7 -4 8 -3 4 5 -4 7 -13
10 -19 8 -7 -2 -23 3 -37 13 -30 19 -110 27 -110 10 0 -7 -8 -9 -20 -5 -12 4
-28 1 -37 -7 -10 -7 -14 -8 -10 -1 5 8 1 8 -17 0 -27 -13 -27 -17 1 -21 10 -2
19 -12 21 -24 2 -14 8 -19 20 -16 15 5 15 4 2 -5 -12 -9 -13 -11 -1 -11 8 0
12 -2 10 -5 -10 -9 -49 8 -42 19 4 6 -1 4 -11 -4 -27 -21 -46 -21 -46 1 0 11
-4 17 -10 14 -5 -3 -10 -1 -10 4 0 6 -6 11 -13 11 -14 0 -36 19 -63 55 -14 18
-15 18 -10 1 5 -14 2 -17 -10 -12 -8 3 -20 6 -24 6 -5 0 -15 10 -21 23 -11 19
-10 20 3 10 8 -7 19 -9 23 -5 5 4 5 1 1 -5 -4 -7 -2 -13 3 -13 15 0 14 23 -1
42 -36 43 -237 150 -265 141 -7 -3 -13 0 -13 5 0 19 -37 19 -49 1z m184 -129
c-3 -5 -12 -10 -18 -10 -7 0 -6 4 3 10 19 12 23 12 15 0z m-280 -10 c-3 -5
-11 -10 -16 -10 -6 0 -7 5 -4 10 3 6 11 10 16 10 6 0 7 -4 4 -10z m325 0 c8
-5 11 -10 5 -10 -5 0 -17 5 -25 10 -8 5 -10 10 -5 10 6 0 17 -5 25 -10z m45
-62 c6 -4 -6 -7 -25 -7 -19 1 -27 3 -17 6 9 2 17 9 17 15 0 7 3 7 8 2 4 -5 12
-12 17 -16z m525 -102 c0 -5 -7 -1 -15 10 -8 10 -14 24 -14 29 0 6 6 1 14 -9
8 -11 15 -24 15 -30z m-797 -63 c-7 -2 -10 -10 -7 -18 7 -16 44 -8 62 14 8 9
11 10 7 3 -5 -9 1 -11 19 -8 16 3 24 1 20 -5 -3 -6 -8 -8 -11 -6 -2 3 -16 -1
-30 -8 -15 -8 -30 -12 -35 -9 -4 3 -11 -2 -14 -10 -5 -13 -11 -13 -45 4 -21
11 -39 25 -39 31 0 6 -4 7 -10 4 -5 -3 -10 -3 -10 2 0 4 24 9 53 10 28 0 47
-1 40 -4z m407 3 c0 -3 -4 -8 -10 -11 -5 -3 -10 -1 -10 4 0 6 5 11 10 11 6 0
10 -2 10 -4z m-63 -23 c0 -9 -4 -10 -14 -2 -7 6 -13 12 -13 14 0 1 6 2 13 2 8
0 14 -6 14 -14z m-447 -13 c23 -7 23 -8 3 -9 -12 -1 -28 -4 -37 -7 -11 -4 -16
-1 -16 10 0 17 11 19 50 6z m480 -40 c0 -5 -4 -10 -10 -10 -5 0 -10 5 -10 10
0 6 5 10 10 10 6 0 10 -4 10 -10z m-236 -27 c-17 -12 -34 -9 -34 7 0 4 11 7
25 6 22 -1 23 -2 9 -13z m-244 4 c0 -2 -8 -11 -18 -20 -15 -14 -19 -15 -19 -2
0 8 4 12 8 9 4 -2 10 0 14 6 6 10 15 14 15 7z m92 -59 c-7 -7 -12 -8 -12 -2 0
14 12 26 19 19 2 -3 -1 -11 -7 -17z m383 -18 c3 -5 -6 -12 -20 -16 -14 -3 -29
-12 -33 -18 -4 -7 -26 -22 -49 -34 -33 -17 -41 -18 -36 -6 5 14 43 35 68 39 6
0 9 7 7 14 -1 7 2 10 8 6 5 -3 13 1 16 9 7 18 30 21 39 6z m-415 -50 c0 -5 -5
-10 -11 -10 -5 0 -7 5 -4 10 3 6 8 10 11 10 2 0 4 -4 4 -10z m354 -31 c-3 -5
-10 -7 -15 -3 -5 3 -7 10 -3 15 3 5 10 7 15 3 5 -3 7 -10 3 -15z m-434 -33 c0
-3 -4 -8 -10 -11 -5 -3 -10 -1 -10 4 0 6 5 11 10 11 6 0 10 -2 10 -4z m305
-16 c-3 -6 5 -10 19 -10 35 0 40 -15 10 -29 -35 -15 -52 -14 -29 3 18 13 18
14 -9 9 -28 -6 -28 -6 -10 16 19 22 30 28 19 11z m-239 -51 c-1 -25 30 -35 51
-17 11 8 12 7 7 -6 -4 -11 -14 -16 -25 -13 -11 3 -19 0 -20 -6 0 -8 -2 -8 -6
1 -2 6 -10 9 -15 6 -6 -4 -8 -2 -4 4 3 5 0 12 -6 15 -10 3 -10 7 1 20 17 21
18 21 17 -4z m107 -24 c-3 -9 -8 -14 -10 -11 -3 3 -2 9 2 15 9 16 15 13 8 -4z
m221 -1 c9 -3 16 -15 16 -25 0 -19 -5 -21 -35 -21 -30 0 -35 2 -35 21 0 11 8
22 18 24 9 3 18 5 19 6 1 0 8 -2 17 -5z m648 -37 c-7 -8 -9 -17 -5 -20 3 -4 1
-7 -5 -7 -16 0 -15 37 1 43 18 6 22 -1 9 -16z m-947 -15 c-3 -3 -11 0 -18 7
-9 10 -8 11 6 5 10 -3 15 -9 12 -12z m976 -5 c-10 -9 -11 -8 -5 6 3 10 9 15
12 12 3 -3 0 -11 -7 -18z m-269 -9 c-9 -4 -32 -7 -50 -7 -26 -1 -37 -8 -50
-31 -9 -16 -21 -30 -26 -30 -4 0 -1 11 8 25 16 24 16 25 -4 25 -11 0 -19 -3
-18 -7 0 -5 -4 -19 -10 -33 -8 -19 -11 -21 -11 -7 -1 12 -5 16 -13 11 -10 -6
-10 -5 -1 7 11 14 5 16 -55 17 -37 1 -75 3 -84 5 -23 4 -35 17 -17 18 36 3 72
8 74 11 2 2 64 3 139 3 74 0 128 -3 118 -7z m96 5 c-10 -2 -28 -2 -40 0 -13 2
-5 4 17 4 22 1 32 -1 23 -4z m-633 -52 c-6 -5 -25 10 -25 20 0 5 6 4 14 -3 8
-7 12 -15 11 -17z m565 13 c0 -8 -19 -13 -24 -6 -3 5 1 9 9 9 8 0 15 -2 15 -3z
m-239 -37 c-10 -9 -11 -8 -5 6 3 10 9 15 12 12 3 -3 0 -11 -7 -18z m116 -9
c-3 -8 -6 -5 -6 6 -1 11 2 17 5 13 3 -3 4 -12 1 -19z m-387 -57 c-8 -5 -26
-11 -40 -15 -21 -5 -20 -3 5 9 32 15 60 20 35 6z m365 -51 c3 -5 1 -10 -4 -10
-6 0 -11 5 -11 10 0 6 2 10 4 10 3 0 8 -4 11 -10z m-162 -69 c-5 -3 -9 -18 -8
-33 2 -29 -9 -38 -18 -15 -7 20 2 79 16 95 10 13 12 11 15 -13 2 -15 0 -31 -5
-34z m-61 -33 c-10 -22 -11 -21 -11 12 -1 26 2 31 11 22 8 -8 8 -17 0 -34z"/>
<path d="M88 1443 c6 -2 18 -2 25 0 6 3 1 5 -13 5 -14 0 -19 -2 -12 -5z"/>
<path d="M40 1436 c0 -2 7 -6 15 -10 8 -3 15 -1 15 4 0 6 -7 10 -15 10 -8 0
-15 -2 -15 -4z"/>
<path d="M1890 1280 c-9 -6 -10 -10 -3 -10 6 0 15 5 18 10 8 12 4 12 -15 0z"/>
<path d="M2520 1066 c0 -9 5 -16 10 -16 6 0 10 4 10 9 0 6 -4 13 -10 16 -5 3
-10 -1 -10 -9z"/>
<path d="M935 964 c-9 -15 -12 -23 -6 -20 11 7 35 46 28 46 -3 0 -12 -12 -22
-26z"/>
<path d="M1563 845 c-36 -32 -26 -32 17 0 19 14 29 25 23 25 -7 0 -25 -11 -40
-25z"/>
<path d="M1626 673 c-4 -9 -2 -21 4 -27 8 -8 9 -6 4 8 -5 13 -4 17 4 12 8 -5
10 -2 6 8 -8 20 -10 20 -18 -1z"/>
<path d="M1577 575 c-8 -8 -18 -11 -22 -7 -5 4 -5 1 -1 -5 5 -10 11 -10 26 0
11 6 20 15 20 19 0 12 -7 10 -23 -7z"/>
<path d="M752 511 c4 -13 18 -16 19 -4 0 4 -5 9 -11 12 -7 2 -11 -2 -8 -8z"/>
<path d="M310 485 c-11 -13 -10 -14 4 -9 9 3 16 10 16 15 0 13 -6 11 -20 -6z"/>
<path d="M1483 455 c-48 -21 -40 -26 12 -8 25 8 45 17 45 19 0 8 -25 3 -57
-11z"/>
<path d="M1623 463 c4 -3 1 -13 -6 -22 -11 -14 -10 -14 5 -2 16 12 16 31 1 31
-4 0 -3 -3 0 -7z"/>
<path d="M100 440 c-9 -6 -10 -10 -3 -10 6 0 15 5 18 10 8 12 4 12 -15 0z"/>
</g>
</svg>
