<?xml version="1.0" standalone="no"?>
<!DOCTYPE svg PUBLIC "-//W3C//DTD SVG 20010904//EN"
 "http://www.w3.org/TR/2001/REC-SVG-20010904/DTD/svg10.dtd">
<svg version="1.0" xmlns="http://www.w3.org/2000/svg"
 width="264.000000pt" height="191.000000pt" viewBox="0 0 264.000000 191.000000"
 preserveAspectRatio="xMidYMid meet">

<g transform="translate(0.000000,191.000000) scale(0.100000,-0.100000)"
fill="#000000" stroke="none">
<path d="M4 1898 c-3 -4 0 -7 7 -6 6 2 14 -3 16 -9 3 -8 -3 -13 -14 -13 -12 0
-6 -6 15 -17 25 -12 32 -21 29 -35 -4 -15 -3 -17 8 -8 11 9 12 7 8 -8 -2 -11
0 -23 6 -26 7 -5 11 6 12 31 0 29 2 33 8 18 5 -11 7 -32 5 -47 -2 -22 0 -26
14 -21 15 6 15 5 -1 -11 -11 -11 -15 -26 -12 -37 4 -10 4 -19 2 -19 -8 0 -39
52 -41 68 -3 18 -46 28 -46 10 0 -6 3 -9 6 -5 9 9 30 -15 39 -43 7 -22 6 -23
-8 -11 -9 7 -14 18 -10 24 3 5 1 7 -5 3 -6 -3 -13 -2 -17 4 -8 14 -25 13 -25
-1 0 -16 34 -44 70 -59 27 -11 30 -17 31 -64 1 -28 2 -63 3 -78 1 -16 -1 -28
-5 -28 -11 0 -60 80 -54 89 3 5 -3 8 -12 7 -10 -2 -21 4 -24 13 -4 9 -6 -9 -4
-39 3 -67 4 -70 15 -45 8 17 9 15 7 -10 -1 -19 2 -29 10 -28 7 2 10 -3 7 -11
-3 -7 7 -27 21 -45 15 -17 22 -31 16 -31 -6 0 -11 -5 -11 -11 0 -6 -7 -17 -15
-25 -9 -10 -15 -11 -15 -4 0 8 -4 7 -13 -2 -7 -7 -12 -25 -12 -39 0 -25 2 -26
40 -21 22 3 43 9 46 15 4 5 9 5 14 -2 3 -6 -2 -19 -12 -29 -10 -9 -14 -14 -9
-9 33 24 36 8 35 -153 0 -88 3 -165 6 -171 4 -6 -2 -13 -14 -16 -12 -3 -21 -9
-21 -14 0 -5 7 -6 15 -3 8 4 15 3 15 0 0 -4 -13 -12 -30 -17 -38 -14 -38 -23
1 -39 28 -12 30 -16 24 -44 -4 -17 -8 -78 -9 -136 -2 -125 -26 -279 -37 -240
-4 16 -7 19 -8 8 -1 -10 -7 -18 -13 -18 -20 1 -45 24 -41 37 3 7 0 20 -6 30
-9 15 -10 14 -11 -12 0 -35 7 -47 35 -63 17 -10 18 -11 3 -12 -10 0 -18 -4
-18 -10 0 -5 9 -10 20 -10 11 0 20 -7 20 -15 0 -8 5 -15 10 -15 6 0 10 5 10
10 0 6 4 10 8 10 15 0 22 -143 9 -191 -4 -14 -17 -31 -29 -38 -13 -6 -16 -10
-8 -8 8 2 26 -2 40 -9 16 -9 28 -10 34 -4 14 14 26 12 20 -3 -3 -9 2 -13 18
-11 13 1 32 3 43 3 15 1 17 3 6 10 -7 5 -10 14 -6 21 5 8 12 7 26 -6 14 -13
16 -20 8 -31 -9 -10 -8 -13 4 -13 8 0 18 7 21 16 3 8 10 12 16 9 5 -3 10 1 10
9 0 9 -5 16 -11 16 -6 0 -8 7 -5 16 4 10 2 13 -7 8 -6 -4 -3 3 8 15 12 14 14
21 6 19 -15 -3 -18 8 -27 115 -7 74 -6 77 15 77 22 0 29 24 9 36 -7 4 -8 3 -4
-4 4 -7 1 -12 -8 -12 -13 0 -16 12 -16 61 0 45 3 58 13 53 6 -4 3 3 -8 15 -16
19 -20 38 -20 105 -1 97 14 190 26 160 7 -18 8 -18 8 3 1 25 17 39 24 21 2 -7
4 -1 4 15 0 15 -4 27 -9 27 -5 0 -7 -4 -4 -9 3 -4 -3 -8 -14 -7 -11 0 -19 6
-18 11 2 6 6 9 10 8 15 -5 8 18 -7 23 -11 5 -12 11 -4 25 5 10 7 19 3 19 -3 0
-1 6 5 14 8 10 9 16 1 21 -6 3 -8 11 -5 16 4 5 2 9 -3 9 -15 0 -32 49 -31 88
0 20 3 31 6 25 6 -15 25 1 36 29 5 15 2 16 -18 8 -14 -5 -25 -6 -25 -1 0 5 9
11 20 14 11 3 23 13 26 24 3 10 12 31 21 46 8 16 12 31 9 34 -3 3 -10 -7 -16
-22 -6 -15 -14 -25 -18 -21 -11 12 -9 95 3 89 5 -4 7 -3 3 2 -4 4 -3 16 3 27
10 19 10 19 -15 3 -14 -10 -26 -21 -26 -26 0 -5 -4 -9 -10 -9 -16 0 -12 30 5
36 8 4 15 11 15 16 0 6 -7 8 -15 4 -19 -7 -33 40 -16 57 6 6 11 16 11 21 0 6
-5 4 -10 -4 -7 -11 -10 -8 -10 16 0 24 5 33 23 39 12 4 25 7 29 6 10 -1 10 13
1 22 -3 4 -13 1 -22 -6 -14 -10 -14 -10 -3 5 15 19 8 38 -14 38 -8 0 -14 5
-14 10 0 7 6 7 19 1 21 -12 32 3 37 49 2 21 1 23 -9 9 -21 -28 -44 -19 -42 15
1 17 -3 40 -9 51 -13 21 -13 56 -2 92 4 13 2 24 -5 29 -8 4 -9 3 -5 -4 4 -7 2
-12 -3 -12 -6 0 -11 9 -11 20 0 11 5 19 12 18 7 -2 12 2 13 7 0 6 4 16 9 23 4
7 5 16 1 20 -3 3 -10 0 -15 -8 -7 -11 -10 -11 -10 -2 0 10 -22 13 -90 11 -50
-1 -93 -6 -96 -11z m174 -105 c7 -32 6 -43 -3 -47 -9 -3 -13 6 -12 32 1 20 -3
46 -7 57 -6 14 -6 17 2 10 6 -5 15 -29 20 -52z m-5 -86 c3 -8 -1 -14 -8 -14
-7 0 -11 6 -8 14 3 7 6 13 8 13 2 0 5 -6 8 -13z m-63 -256 c0 -6 -4 -12 -8
-15 -5 -3 -9 1 -9 9 0 8 4 15 9 15 4 0 8 -4 8 -9z m4 -98 c4 -9 -3 -13 -19
-13 -13 0 -27 -4 -30 -10 -10 -16 -25 -12 -19 5 4 8 12 15 20 15 8 0 14 4 14
8 0 14 29 10 34 -5z m139 -60 c-3 -7 -6 -13 -8 -13 -2 0 -5 6 -8 13 -3 8 1 14
8 14 7 0 11 -6 8 -14z m-3 -1093 c0 -5 -2 -10 -4 -10 -3 0 -8 5 -11 10 -3 6
-1 10 4 10 6 0 11 -4 11 -10z"/>
<path d="M260 1894 c0 -8 5 -12 10 -9 6 3 10 10 10 16 0 5 -4 9 -10 9 -5 0
-10 -7 -10 -16z"/>
<path d="M490 1894 c0 -8 -4 -14 -8 -14 -4 0 -8 -9 -8 -20 0 -11 4 -20 9 -20
5 0 6 -7 3 -15 -3 -9 1 -18 9 -22 12 -4 13 -9 5 -18 -12 -15 3 -31 19 -21 5 3
15 -1 22 -10 11 -14 11 -18 -3 -28 -15 -11 -15 -15 -3 -40 8 -16 12 -32 9 -37
-3 -5 0 -9 5 -9 7 0 11 25 11 61 0 59 14 104 29 95 8 -5 11 9 12 49 0 16 2 17
9 5 8 -13 12 -13 27 3 16 16 16 17 -2 17 -15 0 -17 2 -6 13 11 10 15 8 25 -7
6 -10 19 -28 29 -40 17 -20 17 -20 0 12 -17 31 -17 34 -1 46 15 11 11 13 -30
14 -56 1 -100 -22 -82 -43 9 -11 7 -12 -10 -8 -12 3 -19 11 -16 19 6 15 -4 23
-34 29 -13 2 -20 -2 -20 -11z"/>
<path d="M720 1900 c0 -5 4 -10 9 -10 5 0 7 -16 4 -36 -4 -27 -2 -34 7 -29 7
4 10 18 7 31 -2 14 0 27 4 30 5 3 9 0 9 -6 0 -6 5 -8 10 -5 8 5 7 11 -1 21
-13 16 -49 19 -49 4z"/>
<path d="M808 1901 c7 -4 14 -24 15 -43 1 -26 6 -35 17 -32 8 1 23 3 33 3 9 1
17 6 17 12 0 5 -4 7 -10 4 -15 -9 -12 7 5 29 18 23 19 36 4 36 -5 0 -17 -17
-25 -37 -14 -32 -17 -35 -26 -19 -5 9 -7 23 -4 31 2 7 -2 16 -10 19 -22 9 -31
7 -16 -3z"/>
<path d="M950 1857 c-19 -29 -40 -56 -47 -60 -7 -4 -13 -12 -13 -18 0 -5 -11
-27 -25 -48 -16 -23 -23 -45 -19 -57 6 -19 5 -19 -10 0 -12 15 -19 16 -29 8
-8 -7 -17 -9 -20 -5 -4 3 -7 1 -7 -6 0 -8 7 -11 15 -7 8 3 15 1 15 -4 0 -6 -7
-10 -15 -10 -8 0 -15 -5 -15 -11 0 -5 -4 -7 -10 -4 -5 3 -10 1 -10 -6 0 -7
-16 -27 -36 -46 -31 -28 -36 -39 -37 -83 -1 -27 2 -51 7 -53 12 -4 153 136
148 147 -3 5 0 6 7 1 8 -4 19 1 28 15 14 20 59 45 76 42 4 -1 7 3 7 8 0 6 -4
10 -10 10 -5 0 -10 5 -10 11 0 5 6 7 13 3 6 -4 2 3 -10 15 -24 23 -28 32 -15
30 21 -4 32 3 32 19 1 24 57 96 62 80 3 -7 7 -1 10 13 3 19 0 26 -11 26 -9 0
-20 -5 -24 -11 -6 -7 -7 -4 -3 7 3 9 1 17 -5 17 -6 0 -7 5 -3 11 4 8 9 7 15
-2 7 -11 9 -11 9 -1 0 8 5 10 13 6 6 -4 9 -3 4 1 -21 24 -45 13 -77 -38z"/>
<path d="M1347 1893 c5 -14 -12 -19 -20 -5 -2 4 -2 1 -1 -5 2 -7 -3 -13 -11
-13 -8 0 -15 -7 -15 -16 0 -8 -4 -13 -9 -10 -5 3 -11 -7 -14 -22 -3 -15 -1
-30 5 -33 7 -4 7 -9 0 -13 -12 -7 -25 22 -15 37 3 6 -5 2 -20 -9 -14 -10 -32
-30 -39 -44 -7 -14 -20 -37 -30 -52 -23 -33 -23 -47 0 -45 10 0 19 9 19 19 1
10 11 30 23 45 16 21 20 22 17 7 -1 -10 -6 -24 -10 -31 -4 -6 -1 -14 5 -16 8
-3 6 -6 -5 -6 -11 -1 -15 -6 -11 -12 3 -6 0 -15 -7 -20 -8 -4 -15 -13 -15 -19
-1 -5 -2 -16 -3 -22 -1 -7 -8 2 -16 20 -17 39 -26 40 -43 5 -16 -36 -56 -86
-48 -60 3 10 2 16 -3 12 -5 -3 -12 -19 -16 -35 -4 -17 -11 -28 -16 -24 -5 3
-9 -1 -9 -9 0 -8 -7 -18 -16 -21 -11 -4 -15 -14 -12 -30 3 -16 1 -23 -7 -19
-15 5 -36 -50 -29 -75 2 -9 -1 -7 -7 6 -16 29 -33 28 -58 -5 -20 -27 -21 -28
-27 -6 -3 11 -16 24 -27 27 -19 4 -20 3 -7 -7 9 -7 14 -20 12 -29 -2 -11 3
-18 12 -18 10 0 13 -7 11 -20 -3 -15 3 -24 18 -30 l22 -9 -24 0 c-18 -1 -22
-5 -18 -21 3 -10 2 -19 -2 -18 -22 2 -32 -4 -27 -17 3 -8 1 -15 -5 -15 -6 0
-8 -4 -5 -8 3 -5 -1 -9 -9 -9 -8 0 -15 6 -15 14 0 7 4 13 9 13 5 0 11 10 14
22 5 19 3 18 -19 -7 -14 -17 -33 -39 -42 -50 -10 -11 -24 -34 -31 -52 -7 -18
-19 -38 -27 -44 -17 -14 -19 -33 -1 -22 13 8 60 13 52 5 -3 -3 1 -12 8 -20 9
-13 9 -14 0 -8 -7 4 -13 3 -13 -3 0 -6 -6 -8 -14 -5 -8 3 -17 1 -21 -5 -3 -6
-1 -11 4 -11 6 0 11 -7 11 -15 0 -8 4 -15 9 -15 21 0 41 13 41 26 0 8 4 22 9
32 28 51 39 85 34 99 -4 10 -2 14 4 10 11 -7 26 19 19 32 -3 4 4 14 15 21 10
8 19 20 19 26 0 7 11 26 25 42 23 28 23 30 5 25 -12 -3 -20 0 -20 8 0 7 3 10
6 6 4 -3 13 0 21 8 8 8 21 15 30 15 13 0 13 -3 3 -15 -10 -12 -10 -15 4 -15 9
0 16 8 16 19 0 30 11 51 26 51 8 0 13 3 13 8 -3 20 2 32 15 32 8 0 13 11 12
28 0 19 4 26 14 24 10 -3 9 3 -5 19 -12 13 -14 19 -5 14 24 -15 40 -14 40 1 0
10 -5 12 -12 8 -9 -5 -9 -2 1 9 15 18 26 23 16 7 -3 -5 -2 -10 4 -10 5 0 13 5
16 11 4 6 13 8 21 5 8 -3 14 1 14 10 0 8 18 34 40 58 22 23 37 46 33 50 -4 4
-1 11 7 16 9 5 13 22 12 44 -1 19 3 38 9 42 7 4 9 3 6 -4 -4 -5 -3 -21 2 -34
8 -18 10 -19 10 -5 1 10 12 34 26 54 25 38 25 56 0 46 -23 -8 -18 11 8 35 26
24 37 28 37 11 0 -5 -4 -8 -9 -5 -5 3 -14 -1 -20 -8 -9 -10 -9 -16 -1 -21 6
-4 12 -5 13 -3 1 2 20 23 42 46 l40 43 -36 -2 c-26 -2 -35 -7 -32 -16z m-342
-473 c3 -5 1 -10 -4 -10 -6 0 -11 5 -11 10 0 6 2 10 4 10 3 0 8 -4 11 -10z"/>
<path d="M1733 1882 c-12 -15 -42 -49 -66 -76 -24 -26 -52 -65 -62 -85 -11
-20 -28 -49 -40 -66 l-20 -30 -6 35 -6 35 -2 -35 c-1 -38 -12 -58 -74 -133
-26 -31 -36 -52 -30 -58 6 -6 24 12 51 54 42 64 72 98 72 80 0 -6 -10 -22 -21
-37 -12 -15 -19 -29 -17 -32 8 -8 58 23 50 31 -4 4 5 6 20 3 15 -3 25 -1 22 3
-3 5 -14 9 -25 9 -22 0 -26 25 -4 34 8 3 12 11 9 19 -2 7 9 30 25 51 16 20 28
43 25 51 -3 7 6 21 20 30 14 10 26 23 26 31 0 21 61 85 74 77 6 -3 8 -3 4 2
-4 4 -3 14 3 22 6 7 8 13 3 13 -5 0 -19 -13 -31 -28z m-103 -156 c0 -2 -8 -10
-17 -17 -16 -13 -17 -12 -4 4 13 16 21 21 21 13z"/>
<path d="M1101 1874 c0 -11 3 -14 6 -6 3 7 2 16 -1 19 -3 4 -6 -2 -5 -13z"/>
<path d="M225 1871 c-3 -5 -2 -12 3 -15 5 -3 9 1 9 9 0 17 -3 19 -12 6z"/>
<path d="M440 1860 c0 -5 5 -10 11 -10 5 0 7 5 4 10 -3 6 -8 10 -11 10 -2 0
-4 -4 -4 -10z"/>
<path d="M1851 1847 c-8 -10 -7 -14 2 -14 8 0 14 6 14 14 0 7 -1 13 -2 13 -2
0 -8 -6 -14 -13z"/>
<path d="M1091 1834 c0 -11 3 -14 6 -6 3 7 2 16 -1 19 -3 4 -6 -2 -5 -13z"/>
<path d="M1714 1818 l-19 -23 23 19 c21 18 27 26 19 26 -2 0 -12 -10 -23 -22z"/>
<path d="M25 1820 c-4 -6 -11 -8 -16 -5 -5 4 -9 2 -9 -3 0 -6 8 -13 17 -16 10
-4 14 -4 10 0 -4 4 -2 13 4 21 6 7 9 13 6 13 -3 0 -9 -5 -12 -10z"/>
<path d="M1025 1800 c3 -5 8 -10 11 -10 2 0 4 5 4 10 0 6 -5 10 -11 10 -5 0
-7 -4 -4 -10z"/>
<path d="M1098 1803 c-10 -2 -18 -9 -18 -14 0 -14 16 -11 30 6 7 8 11 14 9 14
-2 -1 -12 -3 -21 -6z"/>
<path d="M1528 1770 c-2 -22 -1 -47 3 -57 4 -10 8 6 10 40 4 64 -7 79 -13 17z"/>
<path d="M1797 1782 c-19 -20 -23 -47 -7 -37 6 4 8 10 5 15 -3 5 0 12 6 16 7
4 9 3 5 -4 -3 -6 -2 -13 4 -17 5 -3 10 1 10 9 0 11 6 13 18 9 16 -6 16 -6 0
10 -21 21 -21 21 -41 -1z"/>
<path d="M725 1770 c-4 -6 -1 -10 5 -10 6 0 8 -5 5 -10 -8 -13 14 -42 25 -35
4 2 5 16 3 29 -5 26 -28 42 -38 26z"/>
<path d="M985 1760 c3 -5 8 -10 11 -10 2 0 4 5 4 10 0 6 -5 10 -11 10 -5 0 -7
-4 -4 -10z"/>
<path d="M660 1754 c0 -2 9 -8 20 -14 11 -6 20 -7 20 -2 0 6 -9 12 -20 15 -11
3 -20 3 -20 1z"/>
<path d="M1910 1734 l-25 -15 25 7 c14 3 29 10 35 15 15 14 -7 10 -35 -7z"/>
<path d="M970 1720 c0 -5 5 -10 10 -10 6 0 10 5 10 10 0 6 -4 10 -10 10 -5 0
-10 -4 -10 -10z"/>
<path d="M473 1713 c-15 -5 -17 -23 -4 -23 5 0 11 7 15 15 3 8 4 15 3 14 -1 0
-8 -3 -14 -6z"/>
<path d="M236 1693 c-9 -10 -7 -55 3 -49 12 8 21 45 11 51 -4 2 -10 2 -14 -2z"/>
<path d="M497 1686 c-3 -8 -14 -12 -25 -9 -15 4 -21 -4 -32 -41 -7 -26 -17
-49 -21 -52 -15 -9 -10 -27 5 -21 7 3 19 0 25 -6 9 -9 14 -9 19 0 4 7 18 14
30 16 24 4 42 17 23 17 -6 0 -11 6 -10 13 3 26 -2 36 -16 31 -19 -8 -19 6 1
34 9 13 14 25 11 28 -2 3 -7 -2 -10 -10z m5 -88 c-2 -10 -6 -18 -7 -18 -1 0
-5 8 -7 18 -3 11 0 19 7 19 7 0 10 -8 7 -19z"/>
<path d="M755 1690 c3 -5 8 -10 11 -10 2 0 4 5 4 10 0 6 -5 10 -11 10 -5 0 -7
-4 -4 -10z"/>
<path d="M1829 1683 c-13 -16 -12 -17 4 -4 9 7 17 15 17 17 0 8 -8 3 -21 -13z"/>
<path d="M1691 1666 c-13 -14 -29 -22 -37 -19 -8 3 -14 -1 -14 -11 0 -21 7
-20 40 7 15 12 36 27 46 34 15 10 16 12 3 12 -8 1 -26 -10 -38 -23z"/>
<path d="M1449 1653 l-24 -26 27 19 c15 10 28 22 28 27 0 12 -5 8 -31 -20z"/>
<path d="M1761 1620 c-24 -22 -47 -38 -51 -35 -10 6 -61 -50 -58 -65 2 -7 -3
-15 -10 -17 -7 -3 -12 -1 -11 4 4 20 -2 23 -18 8 -21 -21 -120 -95 -128 -95
-3 0 -1 9 5 19 12 24 13 41 1 41 -5 0 -12 -13 -16 -29 -4 -21 -15 -33 -36 -40
-19 -6 -28 -15 -24 -22 4 -6 10 -7 14 -3 7 10 31 17 31 9 0 -3 -9 -24 -19 -48
-11 -23 -23 -53 -27 -67 -4 -14 -14 -30 -23 -37 -13 -9 -14 -14 -3 -24 7 -8
12 -9 12 -3 0 6 9 21 19 33 11 12 22 40 26 62 4 21 11 39 15 39 5 0 12 9 15
20 10 32 46 60 76 60 15 0 29 -4 31 -9 2 -5 9 -3 16 5 11 12 8 14 -15 14 l-28
0 33 31 c17 16 36 27 42 24 9 -5 70 20 70 29 0 2 -10 2 -22 -2 -20 -5 -21 -4
-9 11 7 9 18 14 24 10 5 -3 7 -1 3 5 -7 11 4 21 31 27 10 2 36 11 58 20 40 16
40 16 6 10 l-34 -5 26 24 c23 21 34 37 25 36 -2 -1 -23 -19 -47 -40z"/>
<path d="M1868 1633 c7 -3 16 -2 19 1 4 3 -2 6 -13 5 -11 0 -14 -3 -6 -6z"/>
<path d="M1918 1633 c7 -3 16 -2 19 1 4 3 -2 6 -13 5 -11 0 -14 -3 -6 -6z"/>
<path d="M269 1604 c-6 -21 -1 -48 9 -50 7 -1 8 0 2 3 -6 3 -4 10 5 19 8 9 20
12 26 8 7 -4 9 -3 6 3 -7 11 -46 25 -48 17z"/>
<path d="M1838 1598 c6 -6 18 -8 28 -6 14 3 12 5 -9 10 -19 3 -25 2 -19 -4z"/>
<path d="M1362 1585 c-5 -36 -10 -60 -11 -60 -2 0 -4 -9 -6 -20 -4 -20 -4 -20
11 -1 8 11 14 24 14 29 0 4 4 6 9 3 5 -4 7 3 4 14 -3 11 -1 26 5 33 8 9 6 13
-7 13 -10 0 -18 -5 -19 -11z"/>
<path d="M1899 1577 c5 -5 21 -7 37 -5 27 3 26 4 -8 9 -22 3 -34 1 -29 -4z"/>
<path d="M827 1552 c-10 -10 -15 -21 -13 -23 3 -2 7 -24 10 -48 4 -37 26 -83
26 -55 0 5 5 2 10 -6 6 -10 8 1 6 35 -2 34 2 56 12 68 17 19 3 24 -16 5 -9 -9
-12 -8 -13 8 -1 10 -1 22 0 27 2 11 -5 8 -22 -11z"/>
<path d="M1840 1566 c0 -2 9 -6 20 -9 11 -3 18 -1 14 4 -5 9 -34 13 -34 5z"/>
<path d="M920 1549 c0 -5 5 -7 10 -4 6 3 10 8 10 11 0 2 -4 4 -10 4 -5 0 -10
-5 -10 -11z"/>
<path d="M480 1538 c0 -6 3 -8 7 -5 3 4 15 0 25 -10 10 -9 18 -13 18 -8 0 9
-31 34 -42 35 -5 0 -8 -5 -8 -12z"/>
<path d="M1575 1540 c-3 -5 -2 -10 4 -10 5 0 13 5 16 10 3 6 2 10 -4 10 -5 0
-13 -4 -16 -10z"/>
<path d="M1745 1540 c4 -6 11 -8 16 -5 14 9 11 15 -7 15 -8 0 -12 -5 -9 -10z"/>
<path d="M283 1520 c5 -31 17 -36 17 -7 0 15 -4 27 -10 27 -5 0 -9 -9 -7 -20z"/>
<path d="M916 1518 c-3 -7 -4 -29 -3 -49 1 -42 26 -44 28 -3 1 13 2 32 3 41 1
20 -22 30 -28 11z"/>
<path d="M983 1513 c0 -9 4 -10 14 -2 7 6 13 12 13 14 0 1 -6 2 -13 2 -8 0
-14 -6 -14 -14z"/>
<path d="M1488 1519 c-13 -8 -2 -29 15 -29 7 0 23 9 37 20 l25 19 -33 -2 c-19
-1 -38 -5 -44 -8z"/>
<path d="M246 1512 c-3 -6 -1 -14 5 -17 15 -10 25 3 12 16 -7 7 -13 7 -17 1z"/>
<path d="M640 1483 c-20 -26 -20 -28 -3 -34 21 -7 36 10 23 26 -6 7 -5 16 2
23 7 7 9 12 6 12 -4 0 -16 -12 -28 -27z"/>
<path d="M961 1468 c-9 -25 -4 -39 7 -22 4 6 12 13 19 15 8 3 7 8 -3 17 -12
11 -16 9 -23 -10z"/>
<path d="M1391 1471 c-8 -5 -9 -11 -3 -15 5 -3 12 1 16 9 6 17 6 18 -13 6z"/>
<path d="M255 1437 c-16 -20 -16 -34 0 -47 12 -10 14 -6 13 24 -1 20 -2 36 -2
36 -1 -1 -5 -6 -11 -13z"/>
<path d="M276 1432 c-2 -4 -1 -14 3 -21 6 -9 10 -7 14 8 5 20 -7 29 -17 13z"/>
<path d="M667 1425 c-8 -8 -18 -11 -23 -7 -5 4 -2 -1 5 -10 12 -16 11 -18 -5
-19 -11 -1 -22 -1 -26 0 -4 0 -5 -6 -2 -14 4 -8 10 -15 15 -15 4 0 7 -6 5 -12
-3 -7 -7 -26 -10 -43 -5 -24 -1 -20 19 18 14 27 23 52 21 56 -3 4 4 15 15 24
20 18 25 37 10 37 -5 0 -16 -7 -24 -15z"/>
<path d="M1650 1418 c3 -3 21 -10 40 -17 19 -6 30 -7 25 -2 -6 5 -23 13 -40
17 -16 4 -28 5 -25 2z"/>
<path d="M708 1403 c7 -3 16 -2 19 1 4 3 -2 6 -13 5 -11 0 -14 -3 -6 -6z"/>
<path d="M502 1378 c2 -5 8 -9 13 -9 5 0 11 4 13 9 1 5 -4 9 -13 9 -9 0 -14
-4 -13 -9z"/>
<path d="M1210 1380 c0 -5 5 -10 10 -10 6 0 10 5 10 10 0 6 -4 10 -10 10 -5 0
-10 -4 -10 -10z"/>
<path d="M470 1363 c0 -13 5 -23 10 -23 13 0 13 11 0 30 -8 12 -10 11 -10 -7z"/>
<path d="M710 1364 c0 -7 27 -34 34 -34 13 0 5 16 -14 28 -11 7 -20 10 -20 6z"/>
<path d="M335 1351 c-3 -5 -2 -12 3 -15 5 -3 9 1 9 9 0 17 -3 19 -12 6z"/>
<path d="M570 1342 c0 -25 -11 -34 -26 -21 -8 7 -14 7 -19 -1 -4 -6 -2 -9 3
-8 12 4 13 -1 5 -30 -5 -21 -6 -21 -19 -5 -7 10 -14 14 -14 9 0 -5 -7 -2 -17
5 -14 12 -16 12 -11 -1 3 -8 12 -15 20 -14 19 2 12 -56 -10 -73 -9 -7 -11 -13
-6 -13 6 0 15 5 22 12 9 9 12 9 12 0 0 -7 5 -12 11 -12 8 0 8 4 -1 15 -6 8
-10 22 -7 32 4 14 5 12 6 -6 1 -16 5 -21 16 -17 9 3 15 0 15 -9 0 -8 6 -15 13
-16 6 0 4 -4 -6 -8 -17 -6 -16 -8 7 -19 20 -9 24 -9 20 2 -7 18 14 68 25 61
16 -10 22 14 10 37 -8 15 -14 18 -17 10 -9 -27 -32 22 -26 56 4 17 3 32 0 32
-3 0 -6 -8 -6 -18z"/>
<path d="M1256 1343 c-6 -14 -5 -15 5 -6 7 7 10 15 7 18 -3 3 -9 -2 -12 -12z"/>
<path d="M1336 1349 c2 -4 -4 -12 -13 -18 -10 -6 -13 -10 -8 -10 11 0 45 23
45 31 0 3 -7 5 -15 5 -8 0 -12 -4 -9 -8z"/>
<path d="M286 1323 c-6 -14 -5 -15 5 -6 7 7 10 15 7 18 -3 3 -9 -2 -12 -12z"/>
<path d="M496 1332 c-2 -4 -1 -14 4 -22 7 -11 9 -9 7 8 -1 24 -3 26 -11 14z"/>
<path d="M1390 1324 c0 -8 5 -12 10 -9 6 4 8 11 5 16 -9 14 -15 11 -15 -7z"/>
<path d="M585 1319 c-10 -15 3 -25 16 -12 7 7 7 13 1 17 -6 3 -14 1 -17 -5z"/>
<path d="M1234 1309 c0 -10 2 -16 5 -14 2 3 10 0 17 -6 14 -12 34 -4 34 13 0
5 -7 8 -15 4 -8 -3 -15 -1 -15 3 0 5 -6 11 -13 14 -7 3 -13 -3 -13 -14z"/>
<path d="M861 1284 c0 -11 3 -14 6 -6 3 7 2 16 -1 19 -3 4 -6 -2 -5 -13z"/>
<path d="M1215 1243 c-6 -27 -7 -27 -21 -9 -12 18 -13 17 -9 -12 4 -34 -11
-42 -34 -19 -7 6 -11 8 -10 2 4 -17 -12 -45 -25 -45 -7 0 -18 -16 -24 -36 -8
-28 -8 -36 4 -41 21 -8 17 -26 -5 -20 -13 3 -21 -1 -24 -15 -5 -16 -3 -17 9
-7 12 10 17 8 29 -7 14 -18 14 -19 15 0 0 10 14 43 31 72 17 30 28 58 24 64
-3 5 0 7 8 4 8 -3 17 2 21 11 3 9 9 14 13 12 5 -3 9 13 10 34 1 46 -2 49 -12
12z"/>
<path d="M473 1235 c-3 -9 -3 -18 -1 -21 3 -3 8 4 11 16 6 23 -1 27 -10 5z"/>
<path d="M906 1214 c-9 -24 -7 -27 9 -10 17 17 19 26 6 26 -5 0 -12 -7 -15
-16z"/>
<path d="M976 1205 c-3 -8 0 -15 6 -15 7 0 3 -6 -7 -14 -11 -8 -16 -20 -12
-29 3 -9 1 -18 -6 -21 -7 -2 -6 -5 4 -5 15 -1 30 21 42 61 8 22 -18 45 -27 23z"/>
<path d="M1336 1188 c-17 -22 -21 -34 -13 -37 6 -2 16 -9 20 -15 6 -7 7 -6 4
4 -2 8 3 21 12 28 9 8 10 11 4 7 -16 -8 -17 7 -1 23 6 6 9 14 6 17 -3 3 -17
-9 -32 -27z"/>
<path d="M1453 1205 c-18 -8 -33 -17 -33 -20 0 -5 70 21 79 30 9 9 -14 4 -46
-10z"/>
<path d="M1553 1209 c23 -5 45 -5 55 0 11 6 -1 9 -38 9 -54 -1 -55 -1 -17 -9z"/>
<path d="M730 1200 c0 -5 5 -10 11 -10 5 0 7 -5 3 -12 -4 -7 -3 -8 4 -4 6 4 9
13 5 21 -6 17 -23 20 -23 5z"/>
<path d="M1730 1200 c0 -5 5 -10 10 -10 6 0 10 5 10 10 0 6 -4 10 -10 10 -5 0
-10 -4 -10 -10z"/>
<path d="M657 1193 c-3 -5 0 -19 7 -32 8 -14 16 -19 20 -13 3 6 2 13 -4 17 -6
4 -8 10 -5 15 3 5 1 11 -4 14 -5 4 -12 3 -14 -1z"/>
<path d="M465 1170 c3 -5 8 -10 11 -10 2 0 4 5 4 10 0 6 -5 10 -11 10 -5 0 -7
-4 -4 -10z"/>
<path d="M1216 1172 c-2 -4 0 -14 5 -22 8 -13 10 -13 19 0 5 8 10 18 10 23 0
10 -28 9 -34 -1z"/>
<path d="M931 1154 c0 -11 3 -14 6 -6 3 7 2 16 -1 19 -3 4 -6 -2 -5 -13z"/>
<path d="M540 1155 c0 -5 5 -17 10 -25 5 -8 10 -10 10 -5 0 6 -5 17 -10 25 -5
8 -10 11 -10 5z"/>
<path d="M1372 1142 c-7 -5 -15 -22 -18 -37 -3 -16 -10 -36 -17 -45 -10 -13
-9 -13 5 0 13 12 52 90 45 90 -1 0 -8 -4 -15 -8z"/>
<path d="M480 1131 c0 -5 7 -12 16 -15 24 -9 27 -7 10 9 -17 17 -26 19 -26 6z"/>
<path d="M1295 1121 c-3 -11 -11 -21 -16 -21 -5 0 -9 -8 -9 -18 0 -10 -4 -23
-10 -30 -7 -9 -7 -9 2 -2 19 15 41 12 34 -5 -3 -8 -1 -15 4 -15 14 0 21 18 10
25 -10 6 -9 32 2 50 4 6 3 17 -2 24 -6 10 -9 8 -15 -8z"/>
<path d="M420 1121 c0 -5 7 -12 16 -15 14 -5 15 -4 4 9 -14 17 -20 19 -20 6z"/>
<path d="M1204 1122 c3 -5 7 -21 10 -36 8 -42 16 -44 14 -3 -1 21 -7 38 -15
41 -8 3 -12 2 -9 -2z"/>
<path d="M696 1108 c3 -5 10 -6 15 -3 13 9 11 12 -6 12 -8 0 -12 -4 -9 -9z"/>
<path d="M1440 1110 c8 -5 20 -10 25 -10 6 0 3 5 -5 10 -8 5 -19 10 -25 10 -5
0 -3 -5 5 -10z"/>
<path d="M1613 1104 c-3 -8 -12 -13 -19 -10 -8 3 -14 1 -14 -4 0 -6 -7 -10
-15 -10 -8 0 -19 -9 -25 -20 -6 -11 -8 -20 -5 -20 7 0 115 72 115 76 0 12 -32
1 -37 -12z"/>
<path d="M0 1085 c0 -8 7 -15 16 -15 14 0 14 3 4 15 -7 8 -14 15 -16 15 -2 0
-4 -7 -4 -15z"/>
<path d="M1485 1090 c3 -4 14 -10 25 -13 11 -3 18 -2 15 3 -3 4 -14 10 -25 13
-11 3 -18 2 -15 -3z"/>
<path d="M1371 1076 c2 -2 33 -6 69 -9 39 -3 55 -2 40 3 -25 8 -117 13 -109 6z"/>
<path d="M252 1051 c15 -26 43 -42 37 -21 -3 6 -8 10 -11 8 -4 -2 -15 6 -24
17 -15 19 -16 19 -2 -4z"/>
<path d="M726 1053 c-6 -14 -5 -15 5 -6 7 7 10 15 7 18 -3 3 -9 -2 -12 -12z"/>
<path d="M409 1043 c-13 -16 -12 -17 4 -4 9 7 17 15 17 17 0 8 -8 3 -21 -13z"/>
<path d="M0 1002 c0 -38 4 -54 15 -58 8 -4 13 -10 10 -14 -3 -4 2 -10 10 -14
9 -3 12 -12 9 -23 -5 -17 -5 -17 6 0 6 9 17 17 25 17 8 0 12 6 9 14 -3 8 -12
12 -20 9 -8 -3 -14 0 -14 6 0 10 13 15 31 13 4 -1 5 8 2 18 -5 18 -21 25 -46
21 -5 -1 -6 3 -3 8 3 5 -3 20 -14 32 l-19 24 -1 -53z"/>
<path d="M1556 1035 c-7 -18 4 -24 26 -16 17 6 17 7 -1 18 -15 10 -20 9 -25
-2z"/>
<path d="M1172 1028 c-14 -14 -16 -28 -3 -28 5 0 11 9 14 20 6 23 5 24 -11 8z"/>
<path d="M1213 1027 c-13 -5 -23 -17 -22 -26 0 -10 2 -12 6 -3 2 6 12 12 21
12 14 -1 12 -5 -7 -20 -18 -15 -19 -20 -7 -20 9 0 25 9 37 21 18 18 19 23 8
34 -10 10 -20 10 -36 2z"/>
<path d="M1350 1030 c0 -5 5 -10 11 -10 5 0 7 5 4 10 -3 6 -8 10 -11 10 -2 0
-4 -4 -4 -10z"/>
<path d="M449 1012 c8 -15 7 -23 -4 -32 -8 -7 -13 -16 -10 -20 3 -5 -1 -11 -7
-13 -9 -4 -10 -6 -1 -6 6 -1 14 3 18 9 3 5 13 7 23 4 14 -5 14 -3 -2 10 -12 9
-14 16 -7 16 16 0 10 42 -7 48 -11 3 -12 0 -3 -16z"/>
<path d="M1090 1008 c0 -18 18 -34 28 -24 3 4 -2 14 -11 23 -16 16 -17 16 -17
1z"/>
<path d="M1476 1001 c-10 -11 -33 -27 -52 -36 -42 -20 -45 -37 -5 -25 31 9
101 59 101 73 0 14 -27 7 -44 -12z"/>
<path d="M650 993 c8 -3 19 -11 23 -17 6 -7 7 -6 4 4 -2 8 -12 16 -23 17 -13
2 -15 1 -4 -4z"/>
<path d="M2476 985 c-3 -9 -6 -22 -5 -28 0 -7 5 -1 10 12 5 13 8 26 5 28 -2 2
-6 -3 -10 -12z"/>
<path d="M776 982 c-3 -6 -1 -14 5 -17 14 -9 20 -2 10 14 -6 8 -11 9 -15 3z"/>
<path d="M1050 980 c0 -5 5 -10 11 -10 5 0 7 5 4 10 -3 6 -8 10 -11 10 -2 0
-4 -4 -4 -10z"/>
<path d="M277 974 c-4 -4 0 -16 10 -26 9 -10 13 -21 10 -25 -4 -3 -7 -1 -7 5
0 7 -5 12 -10 12 -7 0 -7 -6 0 -20 12 -22 35 -26 46 -8 4 6 3 8 -3 5 -7 -4
-10 5 -9 25 1 31 -20 49 -37 32z"/>
<path d="M728 973 c6 -2 18 -2 25 0 6 3 1 5 -13 5 -14 0 -19 -2 -12 -5z"/>
<path d="M1090 959 c0 -5 5 -7 10 -4 6 3 10 8 10 11 0 2 -4 4 -10 4 -5 0 -10
-5 -10 -11z"/>
<path d="M1172 952 c-12 -8 -7 -42 5 -42 7 0 32 33 33 43 0 9 -22 9 -38 -1z"/>
<path d="M450 944 c0 -3 9 -17 20 -31 l20 -25 10 27 c13 34 13 42 -2 27 -7 -7
-17 -8 -30 -1 -10 5 -18 7 -18 3z"/>
<path d="M335 930 c4 -6 11 -8 16 -5 14 9 11 15 -7 15 -8 0 -12 -5 -9 -10z"/>
<path d="M1251 916 c-1 -25 -3 -27 -18 -15 -15 12 -16 12 -10 -3 3 -10 2 -18
-2 -18 -5 0 -14 -12 -19 -27 -7 -18 -11 -22 -11 -10 -1 24 -14 21 -39 -8 -24
-27 -20 -50 11 -67 20 -10 20 -11 -6 -25 -15 -7 -27 -20 -27 -29 0 -8 -7 -17
-15 -20 -8 -4 -15 -13 -15 -21 0 -8 -9 -22 -21 -32 l-21 -16 22 -20 c20 -18
22 -18 31 -3 14 25 39 10 39 -22 0 -16 5 -32 10 -35 6 -3 10 -16 10 -28 0 -18
2 -19 10 -7 8 12 10 11 10 -6 0 -33 -13 -37 -26 -7 -12 26 -13 23 -11 -36 2
-57 4 -64 23 -67 21 -3 22 1 26 79 2 45 1 84 -3 87 -12 8 -4 162 10 195 7 17
20 45 29 64 14 29 17 32 20 14 2 -12 -4 -38 -13 -59 -10 -23 -12 -41 -6 -47 5
-5 7 -17 4 -26 -4 -13 -3 -13 5 -2 6 8 8 20 5 26 -2 7 3 30 12 51 9 21 15 50
14 64 -2 43 0 48 32 59 18 6 34 11 37 11 3 0 1 -26 -3 -57 -10 -75 -15 -153
-10 -153 2 0 14 21 25 48 30 68 66 102 108 102 19 0 40 -7 46 -15 8 -11 15
-12 26 -4 13 9 13 10 -2 6 -9 -3 -19 1 -22 9 -3 9 -20 14 -43 14 l-38 0 32 23
c18 12 35 28 38 36 5 12 3 12 -12 0 -15 -12 -16 -12 -10 6 6 19 6 19 -6 2 -7
-10 -34 -42 -60 -70 -27 -29 -53 -63 -58 -76 -5 -13 -12 -21 -15 -18 -3 3 -1
14 4 24 5 10 13 41 16 68 4 28 9 58 12 67 4 13 0 16 -20 12 -14 -2 -37 -9 -51
-14 -36 -14 -43 -13 -48 8 -3 10 -5 5 -6 -12z m-70 -240 c-6 -7 -8 -16 -4 -19
3 -4 1 -7 -5 -7 -13 0 -15 10 -6 34 3 9 10 13 16 10 5 -4 5 -11 -1 -18z m-28
-49 c-3 -5 -10 -4 -15 1 -6 6 -7 16 -3 22 6 9 9 9 16 -1 4 -7 5 -17 2 -22z"/>
<path d="M510 916 c0 -8 -3 -23 -6 -33 -3 -12 -1 -10 8 5 8 12 17 19 22 15 4
-4 4 0 0 10 -8 21 -24 23 -24 3z"/>
<path d="M880 897 c0 -13 25 -47 35 -47 8 0 -9 41 -21 51 -11 9 -14 8 -14 -4z"/>
<path d="M942 886 c-14 -32 -6 -56 19 -56 15 0 17 4 9 28 -5 15 -10 33 -12 41
-2 8 -8 3 -16 -13z"/>
<path d="M560 889 c0 -5 5 -7 10 -4 6 3 10 8 10 11 0 2 -4 4 -10 4 -5 0 -10
-5 -10 -11z"/>
<path d="M1176 885 c4 -8 8 -15 10 -15 2 0 4 7 4 15 0 8 -4 15 -10 15 -5 0 -7
-7 -4 -15z"/>
<path d="M11 859 c-7 -17 -11 -32 -8 -35 2 -3 10 9 17 26 7 17 11 33 9 35 -3
2 -11 -10 -18 -26z"/>
<path d="M746 882 c-3 -5 1 -9 9 -9 8 0 12 4 9 9 -3 4 -7 8 -9 8 -2 0 -6 -4
-9 -8z"/>
<path d="M355 870 c6 -10 4 -12 -9 -7 -10 4 -15 3 -11 -3 3 -6 1 -10 -5 -10
-6 0 -8 -5 -4 -11 5 -8 9 -8 14 1 4 7 10 -1 14 -21 3 -18 12 -39 18 -47 7 -8
13 -20 14 -28 2 -11 -3 -11 -26 1 -25 13 -29 13 -40 0 -7 -8 -9 -15 -4 -15 4
0 -1 -7 -12 -15 -10 -8 -14 -15 -9 -14 22 3 29 -2 15 -11 -12 -8 -10 -10 9
-10 19 0 22 -3 14 -11 -6 -6 -9 -18 -6 -27 4 -10 2 -13 -5 -8 -7 4 -12 14 -12
22 0 8 -4 13 -9 9 -5 -3 -12 3 -14 12 -3 10 -5 -4 -6 -32 -1 -54 21 -194 38
-237 13 -36 17 -100 6 -118 -4 -8 -5 -12 0 -8 4 4 16 3 27 -3 15 -8 23 -7 34
8 12 17 13 15 14 -14 0 -31 2 -32 36 -30 20 2 42 10 48 18 6 8 29 14 56 14 34
1 44 4 42 15 -3 11 2 10 16 -4 19 -16 19 -14 -4 41 -25 62 -30 93 -14 93 6 0
10 10 9 23 0 21 -1 21 -10 2 -6 -14 -8 -4 -6 38 2 48 -1 58 -17 63 -10 4 -22
0 -27 -7 -7 -11 -9 -9 -10 6 -1 11 -1 23 -1 26 1 4 -8 5 -19 2 -16 -5 -19 -1
-17 18 2 13 7 31 12 39 4 8 -1 5 -12 -7 -19 -21 -19 -21 -35 -2 -9 10 -14 19
-10 19 4 0 2 5 -5 12 -16 16 -15 33 1 20 8 -7 17 -6 30 3 10 7 18 16 18 19 -1
3 2 6 5 5 4 0 11 5 15 13 7 10 9 10 9 0 0 -7 5 -10 12 -6 7 4 8 3 4 -4 -4 -7
-13 -12 -21 -12 -17 0 -27 -27 -13 -36 6 -4 8 -3 4 4 -3 6 -2 13 3 16 5 4 12
2 16 -4 8 -13 25 -13 25 1 0 5 -4 7 -10 4 -5 -3 -10 -1 -10 4 0 6 5 11 10 11
6 0 10 6 10 14 0 9 7 12 18 9 10 -2 24 3 32 12 11 13 10 19 -9 36 -12 11 -19
26 -15 32 3 7 -4 1 -15 -12 l-21 -23 0 31 c0 17 -3 31 -8 31 -4 0 -7 -17 -6
-39 0 -26 -5 -42 -17 -49 -15 -10 -16 -8 -7 16 11 30 -3 82 -22 82 -6 0 -9 -4
-6 -9 9 -13 -29 -42 -47 -35 -9 3 -20 19 -26 35 -5 16 -15 29 -21 29 -6 0 -9
4 -5 9 3 5 0 13 -6 17 -8 5 -9 3 -4 -6z m19 -157 c8 -19 2 -16 -25 13 -23 25
-23 26 -2 13 13 -7 25 -19 27 -26z m90 -12 c-20 -21 -27 -8 -12 24 11 24 13
25 19 8 4 -10 1 -24 -7 -32z m-93 -31 c6 0 7 5 4 10 -3 6 -1 10 4 10 17 0 13
-15 -9 -35 -25 -23 -33 -16 -23 21 5 21 8 24 11 12 2 -10 8 -18 13 -18z m43
-26 c5 -14 4 -15 -9 -4 -17 14 -19 20 -6 20 5 0 12 -7 15 -16z m-41 -349 c-3
-9 -8 -14 -10 -11 -3 3 -2 9 2 15 9 16 15 13 8 -4z m201 0 c6 -17 4 -18 -18
-9 -20 8 -21 24 -2 24 8 0 16 -7 20 -15z m-144 -38 c0 -5 -4 -5 -10 -2 -5 3
-10 14 -10 23 0 15 2 15 10 2 5 -8 10 -19 10 -23z"/>
<path d="M574 868 c-4 -6 -2 -14 4 -16 7 -2 12 -10 12 -18 0 -8 5 -14 11 -14
7 0 8 7 4 18 -4 9 -8 23 -8 30 0 15 -14 16 -23 0z"/>
<path d="M1060 858 c0 -19 -2 -20 -11 -8 -9 12 -10 12 -5 -4 4 -11 2 -22 -4
-26 -6 -4 -15 -22 -19 -41 -4 -19 -11 -45 -16 -59 -6 -20 -5 -23 6 -12 18 17
30 15 22 -5 -4 -11 -3 -14 5 -9 17 10 15 33 -3 40 -12 4 -13 10 -6 25 6 10 7
21 3 25 -3 4 1 4 9 1 12 -4 18 2 22 22 4 15 9 38 13 51 4 13 2 22 -5 22 -6 0
-11 -10 -11 -22z"/>
<path d="M420 853 c0 -7 5 -15 10 -18 6 -3 10 -11 10 -16 0 -6 -4 -8 -9 -4 -5
3 -12 1 -15 -4 -3 -5 0 -11 8 -14 21 -8 28 22 11 46 -8 12 -15 16 -15 10z"/>
<path d="M987 840 c-3 -13 0 -20 9 -20 8 0 14 9 14 20 0 11 -4 20 -9 20 -5 0
-11 -9 -14 -20z"/>
<path d="M2451 843 c-1 -6 -4 -20 -7 -30 -5 -17 -5 -17 6 0 6 10 9 23 6 30 -3
9 -5 9 -5 0z"/>
<path d="M685 830 c-3 -5 -13 -7 -23 -4 -15 5 -15 4 1 -9 15 -13 16 -15 2 -21
-20 -7 -19 -26 1 -26 9 0 12 5 8 11 -4 7 -1 10 7 7 8 -3 16 -15 17 -28 3 -17
0 -21 -12 -17 -8 3 -18 2 -21 -4 -4 -5 -11 -6 -17 -3 -6 4 -5 10 3 15 10 6 11
9 2 9 -7 0 -13 6 -13 14 0 32 -15 22 -16 -10 0 -19 3 -34 8 -34 4 0 8 -5 8
-11 0 -7 -10 -9 -24 -5 -14 3 -27 2 -30 -3 -9 -14 24 -22 45 -11 16 9 21 6 31
-15 10 -22 13 -23 20 -10 14 25 30 18 18 -7 -11 -22 -10 -22 4 -4 9 11 16 24
16 29 0 4 4 6 9 2 5 -3 12 -1 16 5 3 6 -4 10 -17 10 -14 0 -19 3 -11 8 8 5 9
13 3 22 -14 21 -12 28 8 33 15 4 15 5 -2 6 -14 1 -17 7 -14 31 4 29 -13 43
-27 20z"/>
<path d="M1077 820 c-3 -12 0 -20 8 -20 8 0 11 8 8 20 -3 11 -7 20 -8 20 -1 0
-5 -9 -8 -20z"/>
<path d="M770 830 c0 -3 -4 -20 -9 -38 -6 -18 -6 -30 -1 -27 15 9 37 -40 41
-95 2 -19 19 -41 28 -36 4 3 7 -53 8 -124 0 -71 4 -133 7 -138 3 -6 3 -18 0
-29 -5 -16 -5 -16 5 -1 7 9 14 36 17 60 3 24 10 47 14 52 5 5 6 22 3 39 -4 21
-3 28 5 23 16 -10 15 7 0 23 -7 8 -8 11 -2 8 11 -6 37 37 28 46 -8 7 -44 -4
-44 -14 0 -5 -5 -9 -11 -9 -5 0 -7 5 -4 10 3 6 1 10 -5 10 -7 0 -9 8 -4 22 8
25 34 55 34 39 0 -6 12 -11 28 -10 15 0 22 3 16 5 -7 3 -8 20 -4 49 4 24 3 50
-2 58 -4 8 -9 24 -11 36 -7 45 -19 33 -13 -13 5 -42 4 -47 -9 -36 -12 10 -15
7 -21 -14 -3 -14 -4 -33 0 -41 3 -8 2 -15 -3 -15 -5 0 -20 27 -35 61 -23 54
-56 112 -56 99z"/>
<path d="M1593 760 c0 -41 2 -58 4 -37 2 20 2 54 0 75 -2 20 -4 3 -4 -38z"/>
<path d="M925 810 c4 -6 11 -8 16 -5 14 9 11 15 -7 15 -8 0 -12 -5 -9 -10z"/>
<path d="M964 813 c3 -4 1 -13 -6 -20 -9 -11 -9 -16 2 -23 10 -6 11 -17 2 -50
-7 -27 -7 -39 -1 -33 6 6 11 17 12 24 2 8 5 19 9 24 3 6 9 24 12 41 6 27 4 32
-14 37 -12 3 -19 3 -16 0z"/>
<path d="M2405 770 c2 -19 5 -37 6 -40 1 -3 1 -8 0 -12 0 -3 -3 -64 -6 -135
-3 -70 -8 -138 -11 -150 -3 -16 0 -21 10 -17 10 4 15 37 18 139 5 148 13 169
57 158 14 -3 23 -3 20 1 -4 4 -20 9 -35 10 -24 3 -28 8 -26 27 1 12 -1 20 -5
16 -4 -4 -12 2 -19 15 -11 21 -12 20 -9 -12z"/>
<path d="M305 770 c3 -5 8 -10 11 -10 2 0 4 5 4 10 0 6 -5 10 -11 10 -5 0 -7
-4 -4 -10z"/>
<path d="M287 753 c-4 -3 -7 -11 -7 -17 0 -6 5 -5 12 2 6 6 9 14 7 17 -3 3 -9
2 -12 -2z"/>
<path d="M1540 742 c0 -13 4 -20 10 -17 6 4 10 -8 11 -27 1 -18 5 -44 10 -58
6 -18 7 -9 3 29 -5 58 -34 118 -34 73z"/>
<path d="M1630 679 c-12 -28 -15 -30 -21 -13 -5 12 -8 -8 -9 -51 -2 -54 -4
-64 -11 -45 -6 17 -7 1 -3 -46 4 -54 2 -73 -8 -77 -9 -4 -9 -6 2 -6 23 -1 36
11 44 42 4 19 2 29 -8 33 -13 5 -12 36 3 59 4 6 8 25 10 44 2 19 7 46 12 59
14 37 4 38 -11 1z"/>
<path d="M560 686 c0 -2 7 -7 16 -10 8 -3 12 -2 9 4 -6 10 -25 14 -25 6z"/>
<path d="M723 654 c-25 -28 -39 -79 -24 -88 13 -9 3 -36 -14 -36 -7 0 -15 -7
-19 -15 -3 -9 -18 -15 -36 -15 -16 0 -30 -4 -30 -9 0 -9 28 -6 60 6 8 4 19 5
23 4 5 -1 6 3 3 8 -4 6 6 9 21 8 22 -2 29 3 31 22 3 21 7 23 43 18 21 -3 39
-1 39 3 0 5 -12 11 -27 13 l-28 4 28 2 c18 0 27 6 24 14 -2 6 -10 11 -17 9
-11 -3 -11 0 0 12 9 12 9 16 1 16 -7 0 -10 3 -7 8 6 11 -17 37 -35 38 -8 1
-25 -9 -36 -22z m57 -25 c0 -22 -27 -55 -36 -46 -4 3 1 16 9 28 9 11 13 28 10
37 -4 10 -2 13 5 8 7 -4 12 -16 12 -27z m-43 -15 c-3 -3 -12 -4 -19 -1 -8 3
-5 6 6 6 11 1 17 -2 13 -5z"/>
<path d="M943 643 c1 -25 4 -30 15 -21 7 6 9 14 4 17 -5 3 -12 13 -15 21 -3 8
-5 1 -4 -17z"/>
<path d="M1305 621 c-3 -5 -1 -12 5 -16 5 -3 10 1 10 9 0 18 -6 21 -15 7z"/>
<path d="M2320 610 c0 -5 5 -10 11 -10 5 0 7 5 4 10 -3 6 -8 10 -11 10 -2 0
-4 -4 -4 -10z"/>
<path d="M958 568 c-10 -10 -18 -22 -18 -27 0 -5 -7 -17 -16 -25 -8 -9 -11
-16 -5 -16 6 0 11 -11 11 -25 0 -14 -5 -25 -11 -25 -6 0 -8 9 -4 23 5 18 3 16
-14 -8 -11 -16 -16 -32 -11 -35 5 -3 5 -12 1 -19 -5 -7 -6 -23 -3 -34 5 -20 6
-20 13 -1 7 16 8 17 8 2 1 -13 10 -8 36 20 20 20 34 31 33 23 -2 -9 10 -14 37
-16 22 -1 49 -4 59 -6 21 -4 55 43 36 49 -6 2 -10 33 -10 69 0 56 -2 64 -14
53 -8 -6 -12 -19 -9 -28 3 -9 3 -14 -2 -10 -4 4 -14 3 -22 -3 -10 -9 -13 -8
-13 2 0 8 -15 23 -33 35 -31 19 -33 19 -49 2z m72 -43 c0 -8 -4 -15 -10 -15
-5 0 -10 7 -10 15 0 8 5 15 10 15 6 0 10 -7 10 -15z m-103 -127 c-3 -7 -5 -2
-5 12 0 14 2 19 5 13 2 -7 2 -19 0 -25z"/>
<path d="M1677 553 c-8 -21 -11 -39 -6 -41 16 -6 9 -19 -18 -31 -20 -9 -23
-15 -14 -20 11 -7 11 -10 0 -14 -8 -3 -2 -6 13 -6 15 -1 33 6 41 14 13 13 16
13 21 0 3 -8 14 -15 25 -15 15 0 18 5 13 22 -5 21 -6 21 -13 2 -6 -15 -8 -16
-8 -2 -1 12 -8 15 -26 12 l-25 -4 15 36 c8 20 15 42 14 48 0 6 -5 0 -11 -14
-6 -14 -12 -20 -15 -13 -2 7 1 22 7 33 6 12 10 24 7 26 -2 3 -11 -12 -20 -33z"/>
<path d="M1717 563 c3 -7 6 -13 8 -13 2 0 5 6 8 13 3 8 -1 14 -8 14 -7 0 -11
-6 -8 -14z"/>
<path d="M2302 560 c0 -14 2 -19 5 -12 2 6 2 18 0 25 -3 6 -5 1 -5 -13z"/>
<path d="M70 555 c0 -5 5 -17 10 -25 5 -8 10 -10 10 -5 0 6 -5 17 -10 25 -5 8
-10 11 -10 5z"/>
<path d="M615 550 c-3 -6 1 -7 9 -4 18 7 21 14 7 14 -6 0 -13 -4 -16 -10z"/>
<path d="M1620 550 c0 -5 5 -10 11 -10 5 0 7 5 4 10 -3 6 -8 10 -11 10 -2 0
-4 -4 -4 -10z"/>
<path d="M1262 538 c2 -7 -3 -12 -9 -10 -7 1 -13 -2 -13 -8 0 -5 4 -10 8 -10
4 0 8 -9 9 -20 1 -11 -4 -20 -10 -20 -7 0 -18 -4 -26 -9 -19 -12 3 -50 29 -48
17 1 20 9 21 47 0 25 2 53 4 62 2 10 -1 21 -6 24 -5 3 -8 0 -7 -8z"/>
<path d="M2308 531 c-22 -22 -24 -38 -3 -21 11 9 15 9 15 1 0 -18 17 -4 23 19
6 25 -12 25 -35 1z"/>
<path d="M1717 521 c-4 -17 -3 -21 5 -13 5 5 8 16 6 23 -3 8 -7 3 -11 -10z"/>
<path d="M700 454 c0 -24 6 -49 13 -56 8 -7 12 -19 9 -26 -2 -6 1 -12 6 -12
13 0 19 19 16 55 -1 17 -3 42 -3 57 -1 20 -6 26 -21 25 -17 -1 -20 -8 -20 -43z"/>
<path d="M1821 450 c0 -32 2 -40 9 -29 5 9 6 28 0 45 -8 27 -8 26 -9 -16z"/>
<path d="M1347 454 c3 -9 25 -13 64 -13 48 1 59 4 59 17 0 10 -3 13 -8 7 -8
-12 -92 -17 -92 -6 0 4 -6 8 -14 8 -8 0 -12 -6 -9 -13z"/>
<path d="M1521 454 c0 -11 3 -14 6 -6 3 7 2 16 -1 19 -3 4 -6 -2 -5 -13z"/>
<path d="M616 435 c-7 -18 31 -21 54 -4 13 9 12 10 -2 5 -10 -3 -20 -1 -23 4
-9 15 -22 12 -29 -5z"/>
<path d="M765 439 c-10 -15 3 -25 16 -12 7 7 7 13 1 17 -6 3 -14 1 -17 -5z"/>
<path d="M1488 443 c7 -3 16 -2 19 1 4 3 -2 6 -13 5 -11 0 -14 -3 -6 -6z"/>
<path d="M2366 394 c-9 -22 3 -32 14 -14 12 19 12 30 1 30 -5 0 -12 -7 -15
-16z"/>
<path d="M2398 380 c-3 -17 0 -30 5 -30 5 0 7 -6 5 -12 -3 -7 1 -19 9 -26 14
-15 18 -36 4 -28 -4 3 -6 -7 -4 -22 4 -24 3 -25 -7 -9 -7 10 -10 27 -7 38 3
11 1 16 -5 13 -5 -4 -8 -17 -5 -30 2 -13 0 -24 -4 -24 -5 0 -9 -7 -9 -15 0 -8
6 -15 14 -15 8 0 17 -6 19 -12 3 -8 6 -5 6 5 1 10 5 16 10 13 5 -3 11 14 12
38 2 24 1 42 -3 39 -8 -4 -12 26 -8 61 1 11 -3 15 -9 12 -6 -4 -9 -1 -5 7 3 8
1 18 -4 21 -5 3 -12 -8 -14 -24z"/>
<path d="M956 392 c-4 -7 -4 -12 1 -13 4 0 16 -2 26 -4 9 -2 15 1 11 6 -3 5
-9 7 -14 4 -4 -3 -10 0 -12 7 -3 9 -6 9 -12 0z"/>
<path d="M2476 384 c-4 -9 -4 -19 -1 -22 2 -3 7 3 11 12 4 9 4 19 1 22 -2 3
-7 -3 -11 -12z"/>
<path d="M2070 360 c14 -4 32 -8 40 -9 13 -1 13 0 0 9 -8 5 -26 9 -40 9 l-25
-1 25 -8z"/>
<path d="M2462 305 c-7 -35 -7 -52 0 -56 6 -4 8 -11 4 -17 -3 -5 1 -13 10 -16
8 -3 12 -11 8 -17 -4 -8 -3 -9 4 -5 8 5 6 16 -7 39 -13 25 -15 40 -9 65 5 19
7 39 5 45 -2 7 -9 -10 -15 -38z"/>
<path d="M326 262 c-3 -4 4 -9 15 -9 23 -2 25 3 4 10 -8 4 -16 3 -19 -1z"/>
<path d="M3 233 c0 -12 3 -23 8 -23 5 0 9 4 9 9 0 5 2 16 5 24 4 8 0 14 -8 14
-9 0 -14 -10 -14 -24z"/>
<path d="M507 243 c3 -8 12 -13 20 -11 19 4 12 22 -9 23 -10 1 -14 -4 -11 -12z"/>
<path d="M2280 240 c8 -5 20 -10 25 -10 6 0 3 5 -5 10 -8 5 -19 10 -25 10 -5
0 -3 -5 5 -10z"/>
<path d="M2361 234 c0 -11 3 -14 6 -6 3 7 2 16 -1 19 -3 4 -6 -2 -5 -13z"/>
<path d="M2570 218 c-14 -6 -20 -12 -14 -14 15 -6 60 11 48 18 -5 3 -20 1 -34
-4z"/>
<path d="M2520 205 c0 -8 4 -15 8 -15 5 0 9 7 9 15 0 8 -4 15 -9 15 -4 0 -8
-7 -8 -15z"/>
<path d="M2620 190 c-8 -5 -12 -11 -9 -14 2 -3 11 -1 19 4 8 5 12 11 9 14 -2
3 -11 1 -19 -4z"/>
<path d="M2547 183 c-3 -5 5 -8 18 -8 13 0 21 3 18 8 -2 4 -10 7 -18 7 -8 0
-16 -3 -18 -7z"/>
<path d="M314 148 c-3 -5 -2 -12 1 -18 3 -6 -4 -10 -17 -10 l-23 -1 24 -13
c13 -7 41 -12 62 -10 22 2 39 -1 39 -7 0 -6 4 -8 9 -5 5 3 7 15 4 27 -4 14
-12 19 -24 16 -10 -3 -18 -2 -17 2 3 23 -5 31 -28 29 -14 -2 -28 -6 -30 -10z"/>
<path d="M6 132 c-10 -17 40 -48 82 -51 35 -2 42 1 42 15 0 14 -3 15 -12 6
-17 -17 -43 -15 -79 7 -26 16 -28 20 -13 24 16 4 16 5 2 6 -9 0 -19 -2 -22 -7z"/>
<path d="M85 120 c-16 -7 -17 -9 -3 -9 9 -1 20 4 23 9 7 11 7 11 -20 0z"/>
<path d="M145 90 c-3 -5 -1 -10 4 -10 6 0 11 5 11 10 0 6 -2 10 -4 10 -3 0 -8
-4 -11 -10z"/>
<path d="M520 72 c0 -5 7 -9 15 -9 8 0 12 4 9 9 -3 4 -9 8 -15 8 -5 0 -9 -4
-9 -8z"/>
<path d="M2503 63 c-3 -10 -8 -22 -11 -27 -3 -5 0 -6 6 -2 7 4 12 1 12 -8 0
-20 16 -21 24 -1 3 8 0 14 -7 12 -7 -1 -12 8 -11 21 1 26 -4 28 -13 5z"/>
<path d="M2460 10 c0 -6 7 -10 15 -10 8 0 15 2 15 4 0 2 -7 6 -15 10 -8 3 -15
1 -15 -4z"/>
</g>
</svg>
